<svg xmlns="http://www.w3.org/2000/svg" width="110" height="28" viewBox="0 0 110 28" fill="none">
<path d="M12.688 14.4188L3.11986 4.47629H3.00595L1.98079 0.968428L1.75298 0.753221H0.5V0L3.68939 0L13.2576 9.94252H13.3715V14.4188H12.688ZM0.5 14.4188V13.6656H1.75298L1.98079 13.4504V0.968428L3.00595 4.47629V13.4504L3.23377 13.6656H5.17018V14.4188H0.5ZM15.8774 0V0.753221H14.6245L14.3966 0.968428V14.4188H13.3715V0.968428L13.1437 0.753221H11.2072V0L15.8774 0Z" fill="#ffffff"/>
<path d="M23.7731 13.558C24.5325 13.558 25.216 13.3858 25.8235 13.0415C26.4462 12.6972 26.9625 12.317 27.3726 11.9009L27.9877 12.3959C27.6688 12.7546 27.2967 13.1061 26.8714 13.4504C26.4613 13.7947 25.945 14.0817 25.3223 14.3112C24.6996 14.5264 23.9098 14.634 22.953 14.634C21.9051 14.634 20.9407 14.426 20.0598 14.0099C19.1789 13.5795 18.4727 12.9626 17.9411 12.1591C17.4095 11.3557 17.1438 10.3873 17.1438 9.25387C17.1438 8.12045 17.4095 7.15202 17.9411 6.34858C18.4727 5.54515 19.1789 4.93539 20.0598 4.51933C20.9407 4.08892 21.9051 3.87371 22.953 3.87371C23.9402 3.87371 24.8211 4.05305 25.5956 4.41173C26.3702 4.7704 26.9777 5.32994 27.4182 6.09033C27.8738 6.85073 28.1016 7.8335 28.1016 9.03866H19.9914V8.28544H24.5705C24.5097 7.03724 24.3275 6.11903 24.0237 5.5308C23.7352 4.92822 23.3023 4.62693 22.7252 4.62693C22.3151 4.62693 21.9658 4.82062 21.6772 5.20799C21.3887 5.58101 21.1685 6.11903 21.0166 6.82204C20.8647 7.51069 20.7888 8.32131 20.7888 9.25387C20.7888 10.1721 20.8951 10.954 21.1077 11.5996C21.3355 12.2309 21.6697 12.7187 22.1101 13.063C22.5505 13.393 23.1049 13.558 23.7731 13.558Z" fill="#ffffff"/>
<path d="M34.6011 14.4188V13.6656H35.8085L36.0363 13.4504L29.9309 4.84214H28.6779V4.08892H35.3528V4.84214H34.2593L34.0315 5.05734L40.1369 13.6656H41.4127V14.4188H34.6011ZM28.7235 14.4188V13.6656H29.9992L33.7809 8.99562H34.8972L31.3889 13.4504L31.6167 13.6656H32.9152V14.4188H28.7235ZM35.3301 8.99562L38.565 5.05734L38.3372 4.84214H37.0614V4.08892H41.1393V4.84214H39.8636L36.4464 8.99562H35.3301Z" fill="#ffffff"/>
<path d="M50.0698 12.2237L50.6849 12.7187C50.3204 13.3356 49.9027 13.8091 49.4319 14.139C48.9611 14.469 48.346 14.634 47.5866 14.634C46.9336 14.634 46.3109 14.5121 45.7185 14.2682C45.1414 14.0099 44.663 13.6154 44.2833 13.0845C43.9188 12.5537 43.7366 11.8866 43.7366 11.0831V5.05734L43.5088 4.84214H41.6862V4.08892C42.8253 3.87371 43.8125 3.40743 44.6478 2.69008C45.4831 1.97272 46.0147 1.07603 46.2425 0L47.0399 0V4.08892H50.4571V4.84214H47.2221L47.0399 5.05734V11.6427C47.0399 12.1018 47.1462 12.482 47.3588 12.7832C47.5866 13.0845 47.9056 13.2352 48.3156 13.2352C48.5738 13.2352 48.8548 13.1634 49.1585 13.02C49.4623 12.8622 49.766 12.5967 50.0698 12.2237Z" fill="#ffffff"/>
<path d="M62.0327 3.87371C62.9743 3.87371 63.84 4.00283 64.6298 4.26108C65.4347 4.50498 66.0802 4.88518 66.5662 5.40167C67.0674 5.90382 67.318 6.54227 67.318 7.31701C67.318 8.09175 67.0674 8.73737 66.5662 9.25387C66.0802 9.75601 65.4347 10.1362 64.6298 10.3945C63.84 10.6384 62.9743 10.7603 62.0327 10.7603C61.1062 10.7603 60.2481 10.6384 59.4584 10.3945C58.6686 10.1362 58.0308 9.75601 57.5448 9.25387C57.0739 8.73737 56.8385 8.09175 56.8385 7.31701C56.8385 6.54227 57.0739 5.90382 57.5448 5.40167C58.0308 4.88518 58.6686 4.50498 59.4584 4.26108C60.2481 4.00283 61.1062 3.87371 62.0327 3.87371ZM62.1238 10.0071C62.5794 10.0071 62.9895 9.80623 63.354 9.40451C63.7185 9.00279 63.9008 8.33565 63.9008 7.40309C63.9008 6.71443 63.7944 6.16924 63.5818 5.76753C63.3844 5.36581 63.1338 5.07887 62.83 4.9067C62.5415 4.72019 62.2453 4.62693 61.9416 4.62693C61.4556 4.62693 61.0531 4.84214 60.7341 5.27255C60.4152 5.68862 60.2557 6.33423 60.2557 7.20941C60.2557 7.88372 60.3469 8.42891 60.5291 8.84497C60.7114 9.26104 60.9468 9.56233 61.2353 9.74884C61.5239 9.921 61.8201 10.0071 62.1238 10.0071ZM59.5723 11.4274C59.5723 11.7574 59.7318 12.0013 60.0507 12.1591C60.3696 12.317 60.7949 12.4317 61.3265 12.5035C61.858 12.5609 62.4352 12.6183 63.0578 12.6756C63.6957 12.7187 64.326 12.7904 64.9487 12.8909C65.5866 12.9913 66.1713 13.1491 66.7029 13.3643C67.2344 13.5795 67.6597 13.8951 67.9786 14.3112C68.2976 14.7129 68.457 15.2509 68.457 15.9253C68.457 17.1017 67.9103 18.0773 66.8168 18.8521C65.7233 19.6268 64.0906 20.0142 61.9188 20.0142C61.1442 20.0142 60.4304 19.9568 59.7773 19.842C59.1394 19.7416 58.5851 19.5694 58.1143 19.3255C57.6435 19.096 57.2714 18.8018 56.998 18.4432C56.7398 18.0845 56.6107 17.6541 56.6107 17.1519C56.6107 16.5063 56.8537 15.9683 57.3397 15.5379C57.8257 15.1075 58.6003 14.8205 59.6634 14.6771L60.0051 14.8707C59.7469 15.172 59.5723 15.4805 59.4812 15.7961C59.39 16.1118 59.3445 16.4346 59.3445 16.7646C59.3445 17.5106 59.5799 18.1132 60.0507 18.5723C60.5367 19.0314 61.2809 19.261 62.2833 19.261C62.906 19.261 63.4527 19.1677 63.9235 18.9812C64.4095 18.809 64.7892 18.5651 65.0626 18.2495C65.3512 17.9482 65.4955 17.6039 65.4955 17.2165C65.4955 16.7861 65.3436 16.4561 65.0398 16.2265C64.7361 16.0113 64.3336 15.8463 63.8324 15.7316C63.3312 15.6311 62.7769 15.5451 62.1694 15.4733C61.5771 15.4159 60.9771 15.3442 60.3696 15.2581C59.7773 15.172 59.2306 15.0357 58.7294 14.8492C58.2282 14.6771 57.8257 14.4188 57.522 14.0745C57.2182 13.7302 57.0663 13.2639 57.0663 12.6756C57.0663 11.8866 57.3321 11.2983 57.8637 10.911C58.3953 10.5236 59.0483 10.2151 59.8229 9.98557L60.1418 10.3729C59.914 10.5021 59.7621 10.6742 59.6862 10.8894C59.6103 11.0903 59.5723 11.2696 59.5723 11.4274ZM64.3564 4.26108C64.7209 3.67285 65.131 3.16353 65.5866 2.73312C66.0422 2.28836 66.589 2.06598 67.2268 2.06598C67.7584 2.06598 68.1305 2.20945 68.3431 2.49639C68.5709 2.78333 68.6848 3.0631 68.6848 3.3357C68.6848 3.65133 68.5709 3.9311 68.3431 4.175C68.1305 4.40455 67.8268 4.51933 67.4319 4.51933C67.037 4.51933 66.7256 4.40455 66.4978 4.175C66.2852 3.9311 66.1789 3.65133 66.1789 3.3357C66.1789 3.22092 66.2472 3.09179 66.3839 2.94832C66.5358 2.80485 66.6573 2.69008 66.7484 2.60399L66.7257 3.18505C66.4827 3.25679 66.2093 3.4146 65.9055 3.65851C65.6018 3.90241 65.3132 4.25391 65.0398 4.71302L64.3564 4.26108Z" fill="#ffffff"/>
<path d="M76.2771 13.558C77.0365 13.558 77.7199 13.3858 78.3274 13.0415C78.9501 12.6972 79.4665 12.317 79.8766 11.9009L80.4916 12.3959C80.1727 12.7546 79.8006 13.1061 79.3754 13.4504C78.9653 13.7947 78.4489 14.0817 77.8262 14.3112C77.2035 14.5264 76.4138 14.634 75.457 14.634C74.409 14.634 73.4446 14.426 72.5637 14.0099C71.6829 13.5795 70.9766 12.9626 70.4451 12.1591C69.9135 11.3557 69.6477 10.3873 69.6477 9.25387C69.6477 8.12045 69.9135 7.15202 70.4451 6.34858C70.9766 5.54515 71.6829 4.93539 72.5637 4.51933C73.4446 4.08892 74.409 3.87371 75.457 3.87371C76.4442 3.87371 77.325 4.05305 78.0996 4.41173C78.8742 4.7704 79.4817 5.32994 79.9221 6.09033C80.3777 6.85073 80.6056 7.8335 80.6056 9.03866H72.4954V8.28544H77.0744C77.0137 7.03724 76.8314 6.11903 76.5277 5.5308C76.2391 4.92822 75.8063 4.62693 75.2291 4.62693C74.8191 4.62693 74.4698 4.82062 74.1812 5.20799C73.8927 5.58101 73.6724 6.11903 73.5205 6.82204C73.3687 7.51069 73.2927 8.32131 73.2927 9.25387C73.2927 10.1721 73.399 10.954 73.6117 11.5996C73.8395 12.2309 74.1736 12.7187 74.6141 13.063C75.0545 13.393 75.6088 13.558 76.2771 13.558Z" fill="#ffffff"/>
<path d="M93.9998 13.4504L94.2276 13.6656H95.3666V14.4188H89.3296V13.6656H90.4687L90.6965 13.4504V6.8866C90.6965 6.19794 90.5674 5.72448 90.3092 5.46624C90.0662 5.19364 89.7245 5.05734 89.284 5.05734C88.8132 5.05734 88.3652 5.22234 87.9399 5.55232C87.5299 5.8823 87.0818 6.47053 86.5958 7.31701V13.4504L86.8236 13.6656H87.9627V14.4188H81.9256V13.6656H83.0647L83.2925 13.4504V5.05734L83.0647 4.84214H81.9256V4.08892C82.3205 4.08892 82.7685 4.08892 83.2697 4.08892C83.7861 4.07457 84.2949 4.05305 84.7961 4.02435C85.2973 3.98131 85.7453 3.9311 86.1402 3.87371L86.368 4.08892V5.91817H86.5958C86.9451 5.34429 87.416 4.86366 88.0083 4.47629C88.6006 4.07457 89.4207 3.87371 90.4687 3.87371C91.2888 3.87371 91.957 4.00283 92.4734 4.26108C93.005 4.50498 93.3923 4.84214 93.6353 5.27255C93.8783 5.68862 93.9998 6.1549 93.9998 6.67139V13.4504Z" fill="#ffffff"/>
<path d="M96.5146 14.4188V13.7732L104.443 0.968428L104.215 0.753221H102.574C101.845 0.753221 101.162 0.839303 100.524 1.01147C99.9015 1.18363 99.3319 1.47775 98.8155 1.89381C98.2992 2.30988 97.8587 2.89811 97.4942 3.65851L96.7424 3.4433L97.5626 0L108.634 0V0.645618L100.706 13.4504L100.934 13.6656H103.508C104.602 13.6656 105.604 13.393 106.516 12.8478C107.427 12.3026 108.156 11.4633 108.703 10.3299H109.5L108.52 14.4188H96.5146Z" fill="#ffffff"/>
<path d="M6.70708 24.9512H6.9581L6.64971 26.2385H2.98486V26.0014H3.37931L3.45103 25.9336V22.0041L3.37931 21.9364H2.98486V21.6992H6.57799L6.83618 22.7832L6.5995 22.851C6.48475 22.6116 6.3461 22.4264 6.18353 22.2954C6.02097 22.1645 5.83928 22.0719 5.63847 22.0177C5.44243 21.9635 5.22967 21.9364 5.00017 21.9364H4.6344L4.56268 22.0041V24.0705L4.23994 23.7656H4.94279C5.14839 23.7656 5.33007 23.7001 5.48786 23.5691C5.65042 23.4336 5.7317 23.2507 5.7317 23.0204H5.98272V24.748H5.7317C5.7317 24.5176 5.65042 24.337 5.48786 24.206C5.33007 24.0705 5.14839 24.0027 4.94279 24.0027H4.23994L4.56268 23.6979V25.9336L4.6344 26.0014H5.07189C5.41614 26.0014 5.7317 25.9156 6.01858 25.7439C6.30545 25.5723 6.53496 25.3081 6.70708 24.9512Z" fill="#ffffff"/>
<path d="M10.8625 25.9675L10.8983 26.0014H11.4362V26.2385H9.71497V26.0014H10.2529L10.2887 25.9675V24.0705C10.2887 23.8492 10.2481 23.6753 10.1668 23.5488C10.0855 23.4224 9.93491 23.3591 9.71497 23.3591C9.51416 23.3591 9.32052 23.4246 9.13405 23.5556C8.95236 23.6821 8.7635 23.8989 8.56747 24.206V25.9675L8.60332 26.0014H9.14122V26.2385H7.41996V26.0014H7.95785L7.99371 25.9675V23.393L7.95785 23.3591H7.41996V23.122C7.54427 23.122 7.6638 23.122 7.77856 23.122C7.89809 23.1175 8.01523 23.113 8.12998 23.1084C8.24951 23.1039 8.37143 23.0972 8.49575 23.0881L8.53161 23.122V23.7656H8.56747C8.70612 23.5533 8.88064 23.3817 9.09102 23.2507C9.30139 23.1197 9.56197 23.0542 9.87276 23.0542C10.1214 23.0542 10.3174 23.0949 10.4609 23.1762C10.6043 23.253 10.7071 23.3591 10.7692 23.4946C10.8314 23.6256 10.8625 23.7724 10.8625 23.935V25.9675Z" fill="#ffffff"/>
<path d="M13.8937 25.7168L14.0873 25.8726C14.0108 25.9765 13.9104 26.0759 13.7861 26.1707C13.6666 26.2611 13.5016 26.3062 13.2912 26.3062C13.1574 26.3062 13.0307 26.2814 12.9111 26.2317C12.7916 26.182 12.6936 26.1007 12.6171 25.9878C12.5454 25.8704 12.5095 25.7168 12.5095 25.5271V23.393L12.4736 23.3591H11.864V23.122C12.1509 23.1039 12.378 22.982 12.5454 22.7561C12.7175 22.5258 12.8131 22.1735 12.8322 21.6992H13.0833V23.122H14.0156V23.3591H13.1191L13.0833 23.393V25.5678C13.0833 25.7168 13.1167 25.8275 13.1837 25.8997C13.2506 25.9675 13.3367 26.0014 13.4418 26.0014C13.5375 26.0014 13.6188 25.9765 13.6857 25.9268C13.7574 25.8726 13.8267 25.8026 13.8937 25.7168Z" fill="#ffffff"/>
<path d="M16.3437 26.0352C16.5971 26.0352 16.8098 25.981 16.982 25.8726C17.1589 25.7642 17.3119 25.6446 17.441 25.5136L17.6346 25.6694C17.5342 25.7823 17.4195 25.8885 17.2904 25.9878C17.1661 26.0827 17.0178 26.1595 16.8457 26.2182C16.6784 26.2769 16.4752 26.3062 16.2361 26.3062C15.9444 26.3062 15.6719 26.2408 15.4185 26.1098C15.1699 25.9788 14.9691 25.7913 14.8161 25.5474C14.6631 25.3035 14.5866 25.0145 14.5866 24.6802C14.5866 24.346 14.6631 24.0569 14.8161 23.813C14.9691 23.5691 15.1699 23.3817 15.4185 23.2507C15.6719 23.1197 15.9444 23.0542 16.2361 23.0542C16.5325 23.0542 16.7859 23.1084 16.9963 23.2168C17.2115 23.3252 17.3764 23.4901 17.4912 23.7114C17.6107 23.9327 17.6705 24.2105 17.6705 24.5447H15.1603V24.3076H16.982C16.9628 23.9824 16.8935 23.7317 16.774 23.5556C16.6592 23.3794 16.468 23.2914 16.2002 23.2914C15.966 23.2914 15.7747 23.3501 15.6265 23.4675C15.483 23.5849 15.3779 23.7498 15.3109 23.9621C15.244 24.1699 15.2105 24.4092 15.2105 24.6802C15.2105 24.9467 15.2631 25.1816 15.3683 25.3848C15.4735 25.5881 15.6121 25.7484 15.7843 25.8659C15.9564 25.9788 16.1429 26.0352 16.3437 26.0352Z" fill="#ffffff"/>
<path d="M19.4744 23.8672C19.6131 23.6369 19.7828 23.4427 19.9836 23.2846C20.1892 23.1265 20.4092 23.0497 20.6435 23.0542C20.763 23.0542 20.8586 23.0746 20.9303 23.1152C21.0068 23.1559 21.0618 23.2101 21.0953 23.2778C21.1288 23.3411 21.1455 23.4133 21.1455 23.4946C21.1455 23.612 21.1049 23.7092 21.0236 23.7859C20.9423 23.8627 20.8395 23.9011 20.7152 23.9011C20.5909 23.9011 20.4881 23.8627 20.4068 23.7859C20.3255 23.7092 20.2849 23.612 20.2849 23.4946C20.2849 23.454 20.2992 23.3998 20.3279 23.332C20.3566 23.2643 20.3877 23.2146 20.4211 23.183L20.414 23.3591C20.3231 23.3862 20.2299 23.4314 20.1343 23.4946C20.0386 23.5578 19.9358 23.655 19.8259 23.7859C19.7207 23.9169 19.6035 24.1021 19.4744 24.3415V23.8672ZM19.4744 25.9675L19.5103 26.0014H20.3351V26.2385H18.3269V26.0014H18.8648L18.9007 25.9675V23.393L18.8648 23.3591H18.3269V23.122C18.4512 23.122 18.5708 23.122 18.6855 23.122C18.8051 23.1175 18.9222 23.113 19.0369 23.1084C19.1565 23.1039 19.2784 23.0972 19.4027 23.0881L19.4386 23.122V23.8672H19.4744V25.9675Z" fill="#ffffff"/>
<path d="M23.7064 23.0542C23.9933 23.0542 24.2467 23.122 24.4667 23.2575C24.6914 23.3885 24.8659 23.5759 24.9902 23.8198C25.1193 24.0592 25.1838 24.3415 25.1838 24.6667C25.1838 24.9919 25.1193 25.2787 24.9902 25.5271C24.8659 25.771 24.6914 25.963 24.4667 26.103C24.2467 26.2385 23.9933 26.3062 23.7064 26.3062C23.4052 26.3062 23.1614 26.243 22.9749 26.1165C22.7932 25.9901 22.6569 25.8388 22.5661 25.6626V27.6612L22.602 27.6951H23.4267V27.9322H21.4186V27.6951H21.9565L21.9923 27.6612V23.393L21.9565 23.3591H21.4186V23.122C21.5429 23.122 21.6624 23.122 21.7772 23.122C21.8967 23.1175 22.0139 23.113 22.1286 23.1084C22.2481 23.1039 22.3701 23.0972 22.4944 23.0881L22.5302 23.122V23.6979H22.5661C22.6569 23.5398 22.798 23.393 22.9892 23.2575C23.1853 23.122 23.4243 23.0542 23.7064 23.0542ZM23.606 26.0014C23.8786 26.0014 24.1009 25.9043 24.273 25.71C24.4499 25.5113 24.5384 25.1906 24.5384 24.748C24.5384 24.3054 24.4499 23.9644 24.273 23.725C24.1009 23.4811 23.8786 23.3591 23.606 23.3591C23.41 23.3591 23.2211 23.4224 23.0394 23.5488C22.8578 23.6753 22.7 23.8831 22.5661 24.1721V25.1884C22.7 25.4774 22.8578 25.6852 23.0394 25.8117C23.2211 25.9381 23.41 26.0014 23.606 26.0014Z" fill="#ffffff"/>
<path d="M27.0596 23.8672C27.1982 23.6369 27.368 23.4427 27.5688 23.2846C27.7744 23.1265 27.9943 23.0497 28.2286 23.0542C28.3481 23.0542 28.4438 23.0746 28.5155 23.1152C28.592 23.1559 28.647 23.2101 28.6804 23.2778C28.7139 23.3411 28.7306 23.4133 28.7306 23.4946C28.7306 23.612 28.69 23.7092 28.6087 23.7859C28.5274 23.8627 28.4246 23.9011 28.3003 23.9011C28.176 23.9011 28.0732 23.8627 27.9919 23.7859C27.9106 23.7092 27.87 23.612 27.87 23.4946C27.87 23.454 27.8843 23.3998 27.913 23.332C27.9417 23.2643 27.9728 23.2146 28.0063 23.183L27.9991 23.3591C27.9083 23.3862 27.815 23.4314 27.7194 23.4946C27.6238 23.5578 27.521 23.655 27.411 23.7859C27.3058 23.9169 27.1887 24.1021 27.0596 24.3415V23.8672ZM27.0596 25.9675L27.0954 26.0014H27.9202V26.2385H25.9121V26.0014H26.45L26.4858 25.9675V23.393L26.45 23.3591H25.9121V23.122C26.0364 23.122 26.1559 23.122 26.2707 23.122C26.3902 23.1175 26.5073 23.113 26.6221 23.1084C26.7416 23.1039 26.8635 23.0972 26.9879 23.0881L27.0237 23.122V23.8672H27.0596V25.9675Z" fill="#ffffff"/>
<path d="M29.0898 26.2385V26.0014H29.6277L29.6635 25.9675V23.393L29.6277 23.3591H29.0898V23.122C29.2141 23.122 29.336 23.122 29.4556 23.122C29.5799 23.1175 29.7042 23.113 29.8285 23.1084C29.9528 23.1039 30.0771 23.0972 30.2014 23.0881L30.2373 23.122V25.9675L30.2732 26.0014H30.8111V26.2385H29.0898ZM29.9146 22.3767C29.8094 22.3767 29.7161 22.3406 29.6349 22.2683C29.5584 22.1916 29.5201 22.1035 29.5201 22.0041C29.5201 21.9002 29.5584 21.8122 29.6349 21.7399C29.7161 21.6676 29.8094 21.6315 29.9146 21.6315C30.0245 21.6315 30.1178 21.6676 30.1943 21.7399C30.2708 21.8122 30.309 21.9002 30.309 22.0041C30.309 22.1035 30.2708 22.1916 30.1943 22.2683C30.1178 22.3406 30.0245 22.3767 29.9146 22.3767Z" fill="#ffffff"/>
<path d="M32.054 23.7927C32.054 23.9147 32.1018 24.0118 32.1975 24.084C32.2979 24.1518 32.4246 24.2105 32.5776 24.2602C32.7354 24.3054 32.9003 24.3528 33.0724 24.4025C33.2494 24.4522 33.4143 24.5154 33.5673 24.5922C33.7251 24.6644 33.8518 24.7638 33.9474 24.8903C34.0478 25.0122 34.098 25.1748 34.098 25.3781C34.098 25.6039 34.0359 25.7868 33.9116 25.9268C33.792 26.0623 33.6438 26.1595 33.4669 26.2182C33.2948 26.2769 33.1274 26.3062 32.9649 26.3062C32.7688 26.3062 32.5919 26.2814 32.4341 26.2317C32.2811 26.182 32.1425 26.1165 32.0182 26.0352L31.9106 26.2385H31.6381C31.6094 26.0623 31.5735 25.8885 31.5305 25.7168C31.4922 25.5407 31.4444 25.3645 31.387 25.1884L31.6237 25.1206C31.7528 25.3736 31.8986 25.57 32.0612 25.71C32.2238 25.8455 32.3839 25.9404 32.5417 25.9946C32.6995 26.0443 32.8358 26.0691 32.9505 26.0691C33.1179 26.0691 33.2661 26.0262 33.3952 25.9404C33.5291 25.8501 33.596 25.7146 33.596 25.5339C33.596 25.3939 33.5458 25.2855 33.4454 25.2087C33.3498 25.1274 33.2231 25.0619 33.0653 25.0122C32.9123 24.9625 32.7473 24.9151 32.5704 24.8699C32.3983 24.8203 32.2333 24.7615 32.0756 24.6938C31.9226 24.626 31.7958 24.5335 31.6954 24.416C31.5998 24.2941 31.552 24.136 31.552 23.9418C31.552 23.743 31.6094 23.5782 31.7241 23.4472C31.8389 23.3162 31.9847 23.2191 32.1616 23.1559C32.3433 23.0881 32.5345 23.0542 32.7354 23.0542C32.8884 23.0542 33.0294 23.0746 33.1585 23.1152C33.2876 23.1514 33.3928 23.201 33.4741 23.2643L33.5458 23.122H33.8183C33.8422 23.2756 33.8709 23.4291 33.9044 23.5827C33.9426 23.7363 33.9857 23.8898 34.0335 24.0434L33.7968 24.1111C33.6916 23.8672 33.553 23.6708 33.3808 23.5217C33.2135 23.3682 32.9959 23.2914 32.7282 23.2914C32.4796 23.2914 32.305 23.3456 32.2046 23.454C32.1042 23.5578 32.054 23.6708 32.054 23.7927Z" fill="#ffffff"/>
<path d="M36.5707 26.0352C36.8241 26.0352 37.0369 25.981 37.209 25.8726C37.3859 25.7642 37.5389 25.6446 37.668 25.5136L37.8617 25.6694C37.7613 25.7823 37.6465 25.8885 37.5174 25.9878C37.3931 26.0827 37.2449 26.1595 37.0728 26.2182C36.9054 26.2769 36.7022 26.3062 36.4631 26.3062C36.1715 26.3062 35.8989 26.2408 35.6455 26.1098C35.3969 25.9788 35.1961 25.7913 35.0431 25.5474C34.8901 25.3035 34.8136 25.0145 34.8136 24.6802C34.8136 24.346 34.8901 24.0569 35.0431 23.813C35.1961 23.5691 35.3969 23.3817 35.6455 23.2507C35.8989 23.1197 36.1715 23.0542 36.4631 23.0542C36.7596 23.0542 37.013 23.1084 37.2234 23.2168C37.4385 23.3252 37.6035 23.4901 37.7182 23.7114C37.8378 23.9327 37.8975 24.2105 37.8975 24.5447H35.3873V24.3076H37.209C37.1899 23.9824 37.1206 23.7317 37.001 23.5556C36.8863 23.3794 36.695 23.2914 36.4273 23.2914C36.193 23.2914 36.0017 23.3501 35.8535 23.4675C35.7101 23.5849 35.6049 23.7498 35.538 23.9621C35.471 24.1699 35.4376 24.4092 35.4376 24.6802C35.4376 24.9467 35.4901 25.1816 35.5953 25.3848C35.7005 25.5881 35.8392 25.7484 36.0113 25.8659C36.1834 25.9788 36.3699 26.0352 36.5707 26.0352Z" fill="#ffffff"/>
<path d="M42.5593 26.2385L41.0173 22.4919H40.9814L40.6587 22.0041L40.587 21.9364H40.0491V21.6992H41.964L43.2621 24.8835H43.298L44.6033 21.6992V22.6274H44.5674L43.0972 26.2385H42.5593ZM40.0491 26.2385V26.0014H40.587L40.6587 25.9404V22.0041L40.9814 22.4919V25.9404L41.0532 26.0014H41.6628V26.2385H40.0491ZM44.1371 26.2385V26.0014H44.5315L44.6033 25.9336V21.6992H46.1811V21.9364H45.7508L45.7149 21.9702V25.9336L45.7866 26.0014H46.1811V26.2385H44.1371Z" fill="#ffffff"/>
<path d="M49.5091 26.3062C49.3466 26.3062 49.2079 26.2724 49.0932 26.2046C48.9784 26.1369 48.9043 26.0352 48.8708 25.8997V24.206C48.8708 23.9305 48.8158 23.7159 48.7059 23.5624C48.6007 23.4043 48.4118 23.3252 48.1393 23.3252C47.9911 23.3252 47.8524 23.3411 47.7233 23.3727C47.599 23.3998 47.4819 23.4517 47.3719 23.5285C47.4484 23.5691 47.501 23.6188 47.5297 23.6775C47.5632 23.7363 47.5799 23.7995 47.5799 23.8672C47.5799 23.9666 47.544 24.0479 47.4723 24.1111C47.4006 24.1744 47.3169 24.206 47.2213 24.206C47.1209 24.206 47.0348 24.1721 46.9631 24.1044C46.8962 24.0366 46.8627 23.944 46.8627 23.8266C46.8627 23.7092 46.9009 23.603 46.9774 23.5082C47.0539 23.4133 47.1567 23.332 47.2858 23.2643C47.4149 23.1965 47.5584 23.1446 47.7162 23.1084C47.8787 23.0723 48.0413 23.0542 48.2038 23.0542C48.4333 23.0542 48.6413 23.0859 48.8278 23.1491C49.0143 23.2078 49.1625 23.3139 49.2725 23.4675C49.3872 23.6166 49.4446 23.8288 49.4446 24.1044V25.7168C49.4446 25.7801 49.4589 25.8433 49.4876 25.9065C49.5211 25.9698 49.5832 26.0014 49.6741 26.0014C49.741 26.0014 49.8008 25.9788 49.8534 25.9336C49.906 25.8885 49.9562 25.8365 50.004 25.7778L50.1976 25.9336C50.1403 26.0104 50.0781 26.0782 50.0112 26.1369C49.9442 26.1911 49.8701 26.2317 49.7888 26.2588C49.7076 26.2904 49.6143 26.3062 49.5091 26.3062ZM47.8309 26.3062C47.4532 26.3062 47.1615 26.2182 46.9559 26.042C46.7503 25.8659 46.6475 25.6558 46.6475 25.4119C46.6475 25.1635 46.7503 24.9535 46.9559 24.7819C47.1615 24.6057 47.4532 24.5176 47.8309 24.5176C48.07 24.5176 48.2756 24.556 48.4477 24.6328C48.6198 24.7096 48.7609 24.8067 48.8708 24.9241V25.229C48.7178 25.0755 48.5624 24.9693 48.4047 24.9106C48.2469 24.8519 48.0987 24.8225 47.96 24.8225C47.7353 24.8225 47.556 24.8767 47.4221 24.9851C47.2882 25.089 47.2213 25.2313 47.2213 25.4119C47.2213 25.5881 47.2882 25.7304 47.4221 25.8388C47.556 25.9472 47.7353 26.0014 47.96 26.0014C48.0987 26.0014 48.2469 25.972 48.4047 25.9133C48.5624 25.8546 48.7178 25.7484 48.8708 25.5949V25.8997C48.7609 26.0172 48.6198 26.1143 48.4477 26.1911C48.2756 26.2679 48.07 26.3062 47.8309 26.3062Z" fill="#ffffff"/>
<path d="M53.894 25.9675L53.9298 26.0014H54.4677V26.2385H52.7465V26.0014H53.2844L53.3202 25.9675V24.0705C53.3202 23.8492 53.2796 23.6753 53.1983 23.5488C53.117 23.4224 52.9664 23.3591 52.7465 23.3591C52.5457 23.3591 52.352 23.4246 52.1655 23.5556C51.9839 23.6821 51.795 23.8989 51.599 24.206V25.9675L51.6348 26.0014H52.1727V26.2385H50.4515V26.0014H50.9893L51.0252 25.9675V23.393L50.9893 23.3591H50.4515V23.122C50.5758 23.122 50.6953 23.122 50.81 23.122C50.9296 23.1175 51.0467 23.113 51.1615 23.1084C51.281 23.1039 51.4029 23.0972 51.5272 23.0881L51.5631 23.122V23.7656H51.599C51.7376 23.5533 51.9121 23.3817 52.1225 23.2507C52.3329 23.1197 52.5935 23.0542 52.9043 23.0542C53.1529 23.0542 53.3489 23.0949 53.4923 23.1762C53.6358 23.253 53.7386 23.3591 53.8007 23.4946C53.8629 23.6256 53.894 23.7724 53.894 23.935V25.9675Z" fill="#ffffff"/>
<path d="M57.8647 26.3062C57.7021 26.3062 57.5635 26.2724 57.4487 26.2046C57.334 26.1369 57.2599 26.0352 57.2264 25.8997V24.206C57.2264 23.9305 57.1714 23.7159 57.0614 23.5624C56.9563 23.4043 56.7674 23.3252 56.4949 23.3252C56.3466 23.3252 56.208 23.3411 56.0789 23.3727C55.9546 23.3998 55.8374 23.4517 55.7275 23.5285C55.804 23.5691 55.8566 23.6188 55.8852 23.6775C55.9187 23.7363 55.9354 23.7995 55.9354 23.8672C55.9354 23.9666 55.8996 24.0479 55.8279 24.1111C55.7561 24.1744 55.6725 24.206 55.5769 24.206C55.4764 24.206 55.3904 24.1721 55.3187 24.1044C55.2517 24.0366 55.2183 23.944 55.2183 23.8266C55.2183 23.7092 55.2565 23.603 55.333 23.5082C55.4095 23.4133 55.5123 23.332 55.6414 23.2643C55.7705 23.1965 55.9139 23.1446 56.0717 23.1084C56.2343 23.0723 56.3968 23.0542 56.5594 23.0542C56.7889 23.0542 56.9969 23.0859 57.1834 23.1491C57.3698 23.2078 57.5181 23.3139 57.628 23.4675C57.7428 23.6166 57.8001 23.8288 57.8001 24.1044V25.7168C57.8001 25.7801 57.8145 25.8433 57.8432 25.9065C57.8766 25.9698 57.9388 26.0014 58.0296 26.0014C58.0966 26.0014 58.1564 25.9788 58.209 25.9336C58.2615 25.8885 58.3117 25.8365 58.3596 25.7778L58.5532 25.9336C58.4958 26.0104 58.4337 26.0782 58.3667 26.1369C58.2998 26.1911 58.2257 26.2317 58.1444 26.2588C58.0631 26.2904 57.9699 26.3062 57.8647 26.3062ZM56.1865 26.3062C55.8087 26.3062 55.5171 26.2182 55.3115 26.042C55.1059 25.8659 55.0031 25.6558 55.0031 25.4119C55.0031 25.1635 55.1059 24.9535 55.3115 24.7819C55.5171 24.6057 55.8087 24.5176 56.1865 24.5176C56.4255 24.5176 56.6311 24.556 56.8032 24.6328C56.9754 24.7096 57.1164 24.8067 57.2264 24.9241V25.229C57.0734 25.0755 56.918 24.9693 56.7602 24.9106C56.6024 24.8519 56.4542 24.8225 56.3156 24.8225C56.0908 24.8225 55.9115 24.8767 55.7777 24.9851C55.6438 25.089 55.5769 25.2313 55.5769 25.4119C55.5769 25.5881 55.6438 25.7304 55.7777 25.8388C55.9115 25.9472 56.0908 26.0014 56.3156 26.0014C56.4542 26.0014 56.6024 25.972 56.7602 25.9133C56.918 25.8546 57.0734 25.7484 57.2264 25.5949V25.8997C57.1164 26.0172 56.9754 26.1143 56.8032 26.1911C56.6311 26.2679 56.4255 26.3062 56.1865 26.3062Z" fill="#ffffff"/>
<path d="M60.3705 23.0542C60.5952 23.0542 60.8175 23.0949 61.0375 23.1762C61.2622 23.253 61.4487 23.3727 61.5969 23.5353C61.7451 23.6934 61.8192 23.8943 61.8192 24.1382C61.8192 24.3821 61.7451 24.5854 61.5969 24.748C61.4487 24.9061 61.2622 25.0258 61.0375 25.1071C60.8175 25.1839 60.5952 25.2222 60.3705 25.2222C60.1506 25.2222 59.9306 25.1839 59.7107 25.1071C59.4907 25.0258 59.3091 24.9061 59.1656 24.748C59.0222 24.5854 58.9505 24.3821 58.9505 24.1382C58.9505 23.8943 59.0222 23.6934 59.1656 23.5353C59.3091 23.3727 59.4907 23.253 59.7107 23.1762C59.9306 23.0949 60.1506 23.0542 60.3705 23.0542ZM60.4135 24.9851C60.6287 24.9851 60.8152 24.9129 60.9729 24.7683C61.1307 24.6238 61.2096 24.4273 61.2096 24.1789C61.2096 23.9802 61.1642 23.8153 61.0733 23.6843C60.9873 23.5533 60.8773 23.4562 60.7434 23.393C60.6096 23.3252 60.4709 23.2914 60.3275 23.2914C60.1027 23.2914 59.9187 23.3659 59.7752 23.5149C59.6318 23.664 59.5601 23.8582 59.5601 24.0976C59.5601 24.2918 59.6007 24.4544 59.682 24.5854C59.7681 24.7164 59.8756 24.8157 60.0047 24.8835C60.1338 24.9512 60.2701 24.9851 60.4135 24.9851ZM59.4525 25.5068C59.4525 25.6152 59.5003 25.6965 59.5959 25.7507C59.6963 25.8004 59.8278 25.8365 59.9904 25.8591C60.153 25.8772 60.3299 25.8907 60.5211 25.8997C60.7171 25.9088 60.9108 25.9246 61.102 25.9472C61.2981 25.9652 61.4774 26.0036 61.6399 26.0623C61.8025 26.1165 61.9316 26.2001 62.0272 26.313C62.1276 26.4305 62.1778 26.5885 62.1778 26.7873C62.1778 27.1576 62.0153 27.4512 61.6901 27.668C61.365 27.8893 60.9275 28 60.3777 28C60.2199 28 60.0525 27.9864 59.8756 27.9593C59.7035 27.9368 59.5409 27.8916 59.3879 27.8238C59.2349 27.7561 59.1106 27.6612 59.015 27.5393C58.9242 27.4219 58.8787 27.2683 58.8787 27.0786C58.8787 26.8934 58.9385 26.7331 59.058 26.5976C59.1776 26.4621 59.3401 26.3469 59.5457 26.252L59.7609 26.313C59.6413 26.4079 59.5601 26.5118 59.517 26.6247C59.474 26.7421 59.4525 26.8573 59.4525 26.9702C59.4525 27.2005 59.5362 27.3902 59.7035 27.5393C59.8756 27.6883 60.1243 27.7629 60.4494 27.7629C60.698 27.7629 60.9251 27.7313 61.1307 27.668C61.3363 27.6093 61.5013 27.519 61.6256 27.397C61.7547 27.2796 61.8192 27.1328 61.8192 26.9566C61.8192 26.8211 61.769 26.7195 61.6686 26.6518C61.5682 26.584 61.4343 26.5343 61.267 26.5027C61.0996 26.4756 60.9156 26.4553 60.7147 26.4417C60.5187 26.4327 60.3203 26.4192 60.1195 26.4011C59.9234 26.383 59.7418 26.3514 59.5744 26.3062C59.4071 26.2611 59.2732 26.1911 59.1728 26.0962C59.0724 25.9969 59.0222 25.8614 59.0222 25.6897C59.0222 25.5091 59.0724 25.3623 59.1728 25.2493C59.278 25.1364 59.3975 25.0461 59.5314 24.9783L59.7107 25.0664C59.6198 25.1342 59.5529 25.2087 59.5099 25.29C59.4716 25.3713 59.4525 25.4436 59.4525 25.5068ZM60.8869 23.1762C61.0016 22.991 61.1403 22.8397 61.3028 22.7223C61.4654 22.6048 61.628 22.5461 61.7905 22.5461C61.9244 22.5461 62.0224 22.58 62.0846 22.6477C62.1467 22.7155 62.1778 22.7923 62.1778 22.8781C62.1778 22.9684 62.1443 23.0429 62.0774 23.1017C62.0153 23.1604 61.9411 23.1897 61.8551 23.1897C61.7642 23.1897 61.6877 23.1604 61.6256 23.1017C61.5634 23.0429 61.5323 22.9707 61.5323 22.8849C61.5323 22.8487 61.5419 22.8081 61.561 22.7629C61.5849 22.7178 61.6112 22.6816 61.6399 22.6545L61.6327 22.8374C61.5562 22.86 61.4702 22.9097 61.3746 22.9865C61.2789 23.0633 61.1881 23.1739 61.102 23.3185L60.8869 23.1762Z" fill="#ffffff"/>
<path d="M64.509 26.0352C64.7624 26.0352 64.9752 25.981 65.1473 25.8726C65.3242 25.7642 65.4772 25.6446 65.6063 25.5136L65.7999 25.6694C65.6995 25.7823 65.5848 25.8885 65.4557 25.9878C65.3314 26.0827 65.1831 26.1595 65.011 26.2182C64.8437 26.2769 64.6405 26.3062 64.4014 26.3062C64.1097 26.3062 63.8372 26.2408 63.5838 26.1098C63.3352 25.9788 63.1344 25.7913 62.9814 25.5474C62.8284 25.3035 62.7518 25.0145 62.7518 24.6802C62.7518 24.346 62.8284 24.0569 62.9814 23.813C63.1344 23.5691 63.3352 23.3817 63.5838 23.2507C63.8372 23.1197 64.1097 23.0542 64.4014 23.0542C64.6978 23.0542 64.9512 23.1084 65.1616 23.2168C65.3768 23.3252 65.5417 23.4901 65.6565 23.7114C65.776 23.9327 65.8358 24.2105 65.8358 24.5447H63.3256V24.3076H65.1473C65.1282 23.9824 65.0588 23.7317 64.9393 23.5556C64.8245 23.3794 64.6333 23.2914 64.3655 23.2914C64.1312 23.2914 63.94 23.3501 63.7918 23.4675C63.6483 23.5849 63.5432 23.7498 63.4762 23.9621C63.4093 24.1699 63.3758 24.4092 63.3758 24.6802C63.3758 24.9467 63.4284 25.1816 63.5336 25.3848C63.6388 25.5881 63.7774 25.7484 63.9496 25.8659C64.1217 25.9788 64.3082 26.0352 64.509 26.0352Z" fill="#ffffff"/>
<path d="M72.0361 26.0014H72.574V26.2385H70.8886V26.0014H71.3906L71.4265 25.9675V24.0705C71.4265 23.8492 71.3859 23.6753 71.3046 23.5488C71.2233 23.4224 71.0727 23.3591 70.8528 23.3591C70.6519 23.3591 70.4702 23.4246 70.3077 23.5556C70.1499 23.6821 69.973 23.8989 69.777 24.206V25.9675L69.8128 26.0014H70.3149V26.2385H68.6653V26.0014H69.1674L69.2032 25.9675V24.0705C69.2032 23.8492 69.1626 23.6753 69.0813 23.5488C69 23.4224 68.8494 23.3591 68.6295 23.3591C68.4286 23.3591 68.247 23.4246 68.0844 23.5556C67.9266 23.6821 67.7497 23.8989 67.5537 24.206V25.9675L67.5895 26.0014H68.0916V26.2385H66.4062V26.0014H66.9441L66.9799 25.9675V23.393L66.9441 23.3591H66.4062V23.122C66.5305 23.122 66.65 23.122 66.7648 23.122C66.8843 23.1175 67.0014 23.113 67.1162 23.1084C67.2357 23.1039 67.3576 23.0972 67.4819 23.0881L67.5178 23.122V23.7656H67.5537C67.6923 23.5533 67.8549 23.3817 68.0414 23.2507C68.2278 23.1197 68.4765 23.0542 68.7872 23.0542C69.1124 23.0542 69.349 23.122 69.4973 23.2575C69.6503 23.393 69.7411 23.5646 69.7698 23.7724C69.9085 23.5466 70.0734 23.3704 70.2646 23.2439C70.4559 23.1175 70.7045 23.0542 71.0105 23.0542C71.2592 23.0542 71.4552 23.0949 71.5986 23.1762C71.7421 23.253 71.8449 23.3591 71.907 23.4946C71.9692 23.6256 72.0003 23.7724 72.0003 23.935V25.9675L72.0361 26.0014Z" fill="#ffffff"/>
<path d="M74.9797 26.0352C75.2331 26.0352 75.4459 25.981 75.618 25.8726C75.7949 25.7642 75.9479 25.6446 76.077 25.5136L76.2706 25.6694C76.1702 25.7823 76.0555 25.8885 75.9264 25.9878C75.8021 26.0827 75.6539 26.1595 75.4817 26.2182C75.3144 26.2769 75.1112 26.3062 74.8721 26.3062C74.5805 26.3062 74.3079 26.2408 74.0545 26.1098C73.8059 25.9788 73.6051 25.7913 73.4521 25.5474C73.2991 25.3035 73.2226 25.0145 73.2226 24.6802C73.2226 24.346 73.2991 24.0569 73.4521 23.813C73.6051 23.5691 73.8059 23.3817 74.0545 23.2507C74.3079 23.1197 74.5805 23.0542 74.8721 23.0542C75.1685 23.0542 75.422 23.1084 75.6323 23.2168C75.8475 23.3252 76.0124 23.4901 76.1272 23.7114C76.2467 23.9327 76.3065 24.2105 76.3065 24.5447H73.7963V24.3076H75.618C75.5989 23.9824 75.5295 23.7317 75.41 23.5556C75.2952 23.3794 75.104 23.2914 74.8362 23.2914C74.602 23.2914 74.4107 23.3501 74.2625 23.4675C74.1191 23.5849 74.0139 23.7498 73.9469 23.9621C73.88 24.1699 73.8465 24.4092 73.8465 24.6802C73.8465 24.9467 73.8991 25.1816 74.0043 25.3848C74.1095 25.5881 74.2482 25.7484 74.4203 25.8659C74.5924 25.9788 74.7789 26.0352 74.9797 26.0352Z" fill="#ffffff"/>
<path d="M80.3194 25.9675L80.3553 26.0014H80.8932V26.2385H79.1719V26.0014H79.7098L79.7457 25.9675V24.0705C79.7457 23.8492 79.705 23.6753 79.6237 23.5488C79.5424 23.4224 79.3918 23.3591 79.1719 23.3591C78.9711 23.3591 78.7774 23.4246 78.591 23.5556C78.4093 23.6821 78.2204 23.8989 78.0244 24.206V25.9675L78.0603 26.0014H78.5981V26.2385H76.8769V26.0014H77.4148L77.4506 25.9675V23.393L77.4148 23.3591H76.8769V23.122C77.0012 23.122 77.1207 23.122 77.2355 23.122C77.355 23.1175 77.4722 23.113 77.5869 23.1084C77.7064 23.1039 77.8284 23.0972 77.9527 23.0881L77.9885 23.122V23.7656H78.0244C78.163 23.5533 78.3376 23.3817 78.5479 23.2507C78.7583 23.1197 79.0189 23.0542 79.3297 23.0542C79.5783 23.0542 79.7743 23.0949 79.9178 23.1762C80.0612 23.253 80.164 23.3591 80.2262 23.4946C80.2883 23.6256 80.3194 23.7724 80.3194 23.935V25.9675Z" fill="#ffffff"/>
<path d="M83.3506 25.7168L83.5443 25.8726C83.4677 25.9765 83.3673 26.0759 83.243 26.1707C83.1235 26.2611 82.9585 26.3062 82.7482 26.3062C82.6143 26.3062 82.4876 26.2814 82.368 26.2317C82.2485 26.182 82.1505 26.1007 82.074 25.9878C82.0023 25.8704 81.9664 25.7168 81.9664 25.5271V23.393L81.9306 23.3591H81.321V23.122C81.6078 23.1039 81.8349 22.982 82.0023 22.7561C82.1744 22.5258 82.27 22.1735 82.2892 21.6992H82.5402V23.122H83.4725V23.3591H82.576L82.5402 23.393V25.5678C82.5402 25.7168 82.5736 25.8275 82.6406 25.8997C82.7075 25.9675 82.7936 26.0014 82.8988 26.0014C82.9944 26.0014 83.0757 25.9765 83.1426 25.9268C83.2143 25.8726 83.2837 25.8026 83.3506 25.7168Z" fill="#ffffff"/>
<path d="M86.8295 22.4784C86.8295 22.6364 86.875 22.7719 86.9658 22.8849C87.0566 22.9933 87.1762 23.0881 87.3244 23.1694C87.4774 23.2507 87.6424 23.3275 87.8193 23.3998C88.001 23.472 88.1803 23.5511 88.3572 23.6369C88.5388 23.7227 88.7038 23.8221 88.852 23.935C89.005 24.0479 89.1269 24.1879 89.2178 24.355C89.3086 24.5176 89.354 24.7164 89.354 24.9512C89.354 25.2313 89.2823 25.4729 89.1389 25.6762C88.9955 25.8794 88.7899 26.0352 88.5221 26.1436C88.2544 26.252 87.9316 26.3062 87.5539 26.3062C87.2909 26.3062 87.0543 26.2814 86.8439 26.2317C86.6383 26.182 86.459 26.1143 86.306 26.0285L86.1841 26.2317H85.933C85.9235 26.0782 85.9044 25.9065 85.8757 25.7168C85.847 25.5226 85.8159 25.3329 85.7824 25.1477C85.749 24.958 85.7155 24.7932 85.682 24.6531L85.9187 24.5854C86.086 24.9512 86.2606 25.2403 86.4423 25.4526C86.6287 25.6649 86.82 25.8162 87.016 25.9065C87.2168 25.9923 87.4152 26.0352 87.6113 26.0352C87.7691 26.0352 87.9077 26.0127 88.0273 25.9675C88.1516 25.9178 88.2472 25.8478 88.3141 25.7575C88.3858 25.6626 88.4217 25.5474 88.4217 25.4119C88.4217 25.2493 88.3763 25.1138 88.2854 25.0054C88.1946 24.8925 88.0727 24.7954 87.9197 24.7141C87.7715 24.6283 87.6065 24.5493 87.4248 24.477C87.2479 24.4047 87.0686 24.3279 86.8869 24.2466C86.71 24.1608 86.545 24.0637 86.392 23.9553C86.2438 23.8424 86.1243 23.7092 86.0335 23.5556C85.9426 23.3975 85.8972 23.2056 85.8972 22.9797C85.8972 22.7087 85.9665 22.4738 86.1052 22.2751C86.2486 22.0719 86.4518 21.9138 86.7148 21.8009C86.9778 21.6879 87.2909 21.6315 87.6543 21.6315C87.8551 21.6315 88.044 21.6518 88.2209 21.6925C88.3978 21.7331 88.5651 21.8054 88.7229 21.9093L88.8448 21.6992H89.0959C89.115 21.9296 89.1461 22.1757 89.1891 22.4377C89.2369 22.6997 89.2847 22.9368 89.3325 23.1491L89.0959 23.2168C88.9572 22.8736 88.797 22.6071 88.6153 22.4174C88.4337 22.2277 88.2496 22.0944 88.0631 22.0177C87.8766 21.9409 87.6997 21.9025 87.5324 21.9025C87.3268 21.9025 87.1571 21.9522 87.0232 22.0515C86.8941 22.1509 86.8295 22.2932 86.8295 22.4784Z" fill="#ffffff"/>
<path d="M91.4081 26.4417L90.1602 23.3591H89.6581V23.122H91.3148V23.3591H90.8487L90.8128 23.393L91.6806 25.6287H91.7165L92.5914 23.393L92.5556 23.3591H92.0536V23.122H93.3588V23.3591H92.9285L91.7882 26.2385L91.4081 26.4417ZM90.3825 28C90.2056 28 90.0669 27.9639 89.9665 27.8916C89.8709 27.8193 89.804 27.7358 89.7657 27.6409C89.7275 27.5506 89.7083 27.4738 89.7083 27.4106C89.7083 27.3022 89.7418 27.2118 89.8087 27.1396C89.8805 27.0718 89.9665 27.038 90.0669 27.038C90.1673 27.038 90.251 27.0696 90.3179 27.1328C90.3897 27.2005 90.4255 27.2818 90.4255 27.3767C90.4255 27.4715 90.3897 27.5461 90.3179 27.6003C90.2462 27.659 90.1626 27.6883 90.0669 27.6883C90.0143 27.6883 89.9641 27.6748 89.9163 27.6477C89.8685 27.6251 89.8303 27.5935 89.8016 27.5529C89.7729 27.5122 89.7585 27.4648 89.7585 27.4106H89.9737C89.9737 27.4557 89.9833 27.5077 90.0024 27.5664C90.0263 27.6296 90.0669 27.6838 90.1243 27.729C90.1865 27.7742 90.2725 27.7968 90.3825 27.7968C90.5355 27.7968 90.6718 27.7313 90.7913 27.6003C90.9108 27.4693 91.0208 27.2999 91.1212 27.0921C91.2216 26.8844 91.3172 26.6676 91.4081 26.4417L91.7882 26.2385C91.6926 26.4598 91.5993 26.6744 91.5085 26.8821C91.4176 27.0944 91.3196 27.2841 91.2144 27.4512C91.114 27.6183 90.9945 27.7516 90.8559 27.8509C90.722 27.9503 90.5642 28 90.3825 28Z" fill="#ffffff"/>
<path d="M94.199 23.7927C94.199 23.9147 94.2468 24.0118 94.3424 24.084C94.4428 24.1518 94.5695 24.2105 94.7225 24.2602C94.8803 24.3054 95.0452 24.3528 95.2174 24.4025C95.3943 24.4522 95.5592 24.5154 95.7122 24.5922C95.87 24.6644 95.9967 24.7638 96.0923 24.8903C96.1927 25.0122 96.243 25.1748 96.243 25.3781C96.243 25.6039 96.1808 25.7868 96.0565 25.9268C95.937 26.0623 95.7887 26.1595 95.6118 26.2182C95.4397 26.2769 95.2724 26.3062 95.1098 26.3062C94.9138 26.3062 94.7369 26.2814 94.5791 26.2317C94.4261 26.182 94.2874 26.1165 94.1631 26.0352L94.0555 26.2385H93.783C93.7543 26.0623 93.7184 25.8885 93.6754 25.7168C93.6372 25.5407 93.5894 25.3645 93.532 25.1884L93.7686 25.1206C93.8977 25.3736 94.0436 25.57 94.2061 25.71C94.3687 25.8455 94.5289 25.9404 94.6867 25.9946C94.8444 26.0443 94.9807 26.0691 95.0955 26.0691C95.2628 26.0691 95.411 26.0262 95.5401 25.9404C95.674 25.8501 95.7409 25.7146 95.7409 25.5339C95.7409 25.3939 95.6907 25.2855 95.5903 25.2087C95.4947 25.1274 95.368 25.0619 95.2102 25.0122C95.0572 24.9625 94.8923 24.9151 94.7153 24.8699C94.5432 24.8203 94.3783 24.7615 94.2205 24.6938C94.0675 24.626 93.9408 24.5335 93.8404 24.416C93.7447 24.2941 93.6969 24.136 93.6969 23.9418C93.6969 23.743 93.7543 23.5782 93.869 23.4472C93.9838 23.3162 94.1296 23.2191 94.3065 23.1559C94.4882 23.0881 94.6795 23.0542 94.8803 23.0542C95.0333 23.0542 95.1743 23.0746 95.3034 23.1152C95.4325 23.1514 95.5377 23.201 95.619 23.2643L95.6907 23.122H95.9633C95.9872 23.2756 96.0158 23.4291 96.0493 23.5827C96.0876 23.7363 96.1306 23.8898 96.1784 24.0434L95.9417 24.1111C95.8365 23.8672 95.6979 23.6708 95.5258 23.5217C95.3584 23.3682 95.1409 23.2914 94.8731 23.2914C94.6245 23.2914 94.45 23.3456 94.3496 23.454C94.2492 23.5578 94.199 23.6708 94.199 23.7927Z" fill="#ffffff"/>
<path d="M98.773 25.7168L98.9667 25.8726C98.8902 25.9765 98.7898 26.0759 98.6655 26.1707C98.5459 26.2611 98.381 26.3062 98.1706 26.3062C98.0367 26.3062 97.91 26.2814 97.7905 26.2317C97.6709 26.182 97.5729 26.1007 97.4964 25.9878C97.4247 25.8704 97.3888 25.7168 97.3888 25.5271V23.393L97.353 23.3591H96.7434V23.122C97.0302 23.1039 97.2574 22.982 97.4247 22.7561C97.5968 22.5258 97.6924 22.1735 97.7116 21.6992H97.9626V23.122H98.8949V23.3591H97.9985L97.9626 23.393V25.5678C97.9626 25.7168 97.9961 25.8275 98.063 25.8997C98.1299 25.9675 98.216 26.0014 98.3212 26.0014C98.4168 26.0014 98.4981 25.9765 98.565 25.9268C98.6367 25.8726 98.7061 25.8026 98.773 25.7168Z" fill="#ffffff"/>
<path d="M101.223 26.0352C101.476 26.0352 101.689 25.981 101.861 25.8726C102.038 25.7642 102.191 25.6446 102.32 25.5136L102.514 25.6694C102.414 25.7823 102.299 25.8885 102.17 25.9878C102.045 26.0827 101.897 26.1595 101.725 26.2182C101.558 26.2769 101.354 26.3062 101.115 26.3062C100.824 26.3062 100.551 26.2408 100.298 26.1098C100.049 25.9788 99.8484 25.7913 99.6954 25.5474C99.5424 25.3035 99.4659 25.0145 99.4659 24.6802C99.4659 24.346 99.5424 24.0569 99.6954 23.813C99.8484 23.5691 100.049 23.3817 100.298 23.2507C100.551 23.1197 100.824 23.0542 101.115 23.0542C101.412 23.0542 101.665 23.1084 101.876 23.2168C102.091 23.3252 102.256 23.4901 102.371 23.7114C102.49 23.9327 102.55 24.2105 102.55 24.5447H100.04V24.3076H101.861C101.842 23.9824 101.773 23.7317 101.653 23.5556C101.539 23.3794 101.347 23.2914 101.08 23.2914C100.845 23.2914 100.654 23.3501 100.506 23.4675C100.362 23.5849 100.257 23.7498 100.19 23.9621C100.123 24.1699 100.09 24.4092 100.09 24.6802C100.09 24.9467 100.142 25.1816 100.248 25.3848C100.353 25.5881 100.491 25.7484 100.664 25.8659C100.836 25.9788 101.022 26.0352 101.223 26.0352Z" fill="#ffffff"/>
<path d="M108.75 26.0014H109.288V26.2385H107.603V26.0014H108.105L108.141 25.9675V24.0705C108.141 23.8492 108.1 23.6753 108.019 23.5488C107.937 23.4224 107.787 23.3591 107.567 23.3591C107.366 23.3591 107.184 23.4246 107.022 23.5556C106.864 23.6821 106.687 23.8989 106.491 24.206V25.9675L106.527 26.0014H107.029V26.2385H105.379V26.0014H105.881L105.917 25.9675V24.0705C105.917 23.8492 105.877 23.6753 105.795 23.5488C105.714 23.4224 105.563 23.3591 105.343 23.3591C105.143 23.3591 104.961 23.4246 104.798 23.5556C104.641 23.6821 104.464 23.8989 104.268 24.206V25.9675L104.304 26.0014H104.806V26.2385H103.12V26.0014H103.658L103.694 25.9675V23.393L103.658 23.3591H103.12V23.122C103.245 23.122 103.364 23.122 103.479 23.122C103.598 23.1175 103.715 23.113 103.83 23.1084C103.95 23.1039 104.072 23.0972 104.196 23.0881L104.232 23.122V23.7656H104.268C104.406 23.5533 104.569 23.3817 104.755 23.2507C104.942 23.1197 105.19 23.0542 105.501 23.0542C105.826 23.0542 106.063 23.122 106.211 23.2575C106.364 23.393 106.455 23.5646 106.484 23.7724C106.623 23.5466 106.787 23.3704 106.979 23.2439C107.17 23.1175 107.419 23.0542 107.725 23.0542C107.973 23.0542 108.169 23.0949 108.313 23.1762C108.456 23.253 108.559 23.3591 108.621 23.4946C108.683 23.6256 108.714 23.7724 108.714 23.935V25.9675L108.75 26.0014Z" fill="#ffffff"/>
<path d="M70.7498 18.7747C70.5796 18.7747 70.4327 18.7411 70.3089 18.6739C70.1852 18.6038 70.0892 18.5029 70.0212 18.3714C69.9531 18.2399 69.9191 18.0821 69.9191 17.898C69.9191 17.6613 69.9717 17.4508 70.0769 17.2667C70.1852 17.0797 70.3306 16.9335 70.5131 16.8283C70.6987 16.7231 70.906 16.6705 71.1349 16.6705C71.237 16.6705 71.3345 16.6837 71.4273 16.71C71.5232 16.7333 71.6005 16.7743 71.6593 16.8327C71.7181 16.8882 71.7475 16.9642 71.7475 17.0607C71.7475 17.163 71.7073 17.2565 71.6268 17.3412C71.5464 17.426 71.435 17.5005 71.2927 17.5648C71.1535 17.6291 70.9942 17.6817 70.8147 17.7226C70.6353 17.7606 70.4481 17.7869 70.2532 17.8015V17.6613C70.4079 17.6466 70.5518 17.6233 70.6848 17.5911C70.8209 17.559 70.94 17.5195 71.0421 17.4728C71.1442 17.4231 71.2231 17.3661 71.2788 17.3018C71.3376 17.2346 71.367 17.1615 71.367 17.0826C71.367 17.0037 71.3422 16.9408 71.2927 16.8941C71.2463 16.8473 71.1767 16.8239 71.0839 16.8239C70.9694 16.8239 70.8642 16.8517 70.7683 16.9072C70.6724 16.9628 70.5889 17.0402 70.5177 17.1396C70.4466 17.2389 70.3924 17.3544 70.3553 17.4859C70.3182 17.6145 70.2996 17.7548 70.2996 17.9067C70.2996 18.0704 70.3213 18.2034 70.3646 18.3057C70.411 18.408 70.4729 18.4825 70.5502 18.5293C70.6307 18.576 70.7219 18.5994 70.824 18.5994C70.957 18.5994 71.0777 18.5585 71.186 18.4766C71.2974 18.3948 71.3855 18.3028 71.4505 18.2005L71.5944 18.275C71.548 18.3539 71.4845 18.4313 71.4041 18.5073C71.3268 18.5833 71.2339 18.6476 71.1257 18.7002C71.0174 18.7499 70.8921 18.7747 70.7498 18.7747Z" fill="#ffffff"/>
<path d="M74.249 18.2706L74.3928 18.3451C74.3155 18.503 74.2319 18.614 74.1422 18.6783C74.0556 18.7426 73.9581 18.7747 73.8499 18.7747C73.723 18.7747 73.624 18.7338 73.5529 18.652C73.4848 18.5672 73.4662 18.4313 73.4972 18.2443L73.6457 17.3325C73.6581 17.2682 73.6611 17.201 73.655 17.1308C73.6488 17.0577 73.624 16.9964 73.5807 16.9467C73.5405 16.8941 73.4693 16.8678 73.3672 16.8678C73.3115 16.8678 73.2481 16.878 73.177 16.8985C73.1058 16.916 73.0347 16.9525 72.9635 17.0081C72.8954 17.0607 72.8336 17.1396 72.7779 17.2448C72.7253 17.3471 72.6866 17.483 72.6619 17.6525L72.5041 18.7309H72.1514L72.4252 16.8897L72.402 16.8678H72.0586L72.0818 16.7143C72.2024 16.7143 72.3138 16.7129 72.4159 16.71C72.5211 16.707 72.6356 16.7012 72.7593 16.6924L72.7825 16.7143L72.7315 17.0256H72.7547C72.8135 16.9321 72.9001 16.8502 73.0145 16.7801C73.129 16.707 73.2713 16.6705 73.4415 16.6705C73.6488 16.6705 73.8019 16.7275 73.9009 16.8415C74.003 16.9555 74.0386 17.1045 74.0077 17.2886L73.8406 18.3057C73.8282 18.3963 73.8313 18.465 73.8499 18.5117C73.8684 18.5556 73.8994 18.5775 73.9427 18.5775C73.9953 18.5775 74.0463 18.5497 74.0958 18.4942C74.1484 18.4357 74.1995 18.3612 74.249 18.2706Z" fill="#ffffff"/>
<path d="M75.4472 16.6924L75.4704 16.7143L75.1316 19.0071C75.1007 19.2146 75.0481 19.3812 74.9738 19.5068C74.8996 19.6354 74.8098 19.7275 74.7047 19.783C74.5995 19.8415 74.485 19.8707 74.3612 19.8707C74.2622 19.8707 74.1818 19.8517 74.1199 19.8137C74.055 19.7786 74.0086 19.7319 73.9807 19.6734C73.9529 19.6179 73.9389 19.5609 73.9389 19.5025C73.9389 19.4265 73.9621 19.3593 74.0085 19.3008C74.055 19.2453 74.1153 19.2175 74.1895 19.2175C74.2483 19.2175 74.2947 19.2351 74.3288 19.2701C74.3597 19.3052 74.3752 19.3505 74.3752 19.406C74.3752 19.4645 74.3566 19.5185 74.3195 19.5682C74.2823 19.6208 74.2375 19.6544 74.1849 19.669C74.2282 19.7012 74.2777 19.7173 74.3334 19.7173C74.386 19.7173 74.4401 19.6997 74.4958 19.6647C74.5515 19.6325 74.6041 19.5697 74.6536 19.4762C74.7031 19.3856 74.7402 19.2555 74.765 19.086L75.0945 16.8897L75.0713 16.8678H74.7279L74.7511 16.7143C74.8717 16.7143 74.9862 16.7129 75.0945 16.71C75.2058 16.707 75.3234 16.7012 75.4472 16.6924ZM75.3311 16.2321C75.2724 16.2321 75.2244 16.2131 75.1873 16.1751C75.1502 16.1371 75.1316 16.0918 75.1316 16.0392C75.1316 15.9633 75.1579 15.896 75.2105 15.8376C75.2631 15.7791 75.3311 15.7499 75.4147 15.7499C75.4765 15.7499 75.5245 15.7689 75.5585 15.8069C75.5957 15.8449 75.6142 15.8902 75.6142 15.9428C75.6142 16.0159 75.5879 16.0831 75.5353 16.1444C75.4827 16.2029 75.4147 16.2321 75.3311 16.2321Z" fill="#ffffff"/>
<path d="M77.0517 16.6705C77.2157 16.6705 77.3596 16.707 77.4833 16.7801C77.6071 16.8532 77.703 16.9555 77.771 17.087C77.8391 17.2185 77.8731 17.3719 77.8731 17.5473C77.8731 17.708 77.8437 17.8629 77.785 18.012C77.7293 18.1581 77.6504 18.2881 77.5483 18.4021C77.4462 18.5161 77.3255 18.6067 77.1863 18.6739C77.0471 18.7411 76.8955 18.7747 76.7315 18.7747C76.5676 18.7747 76.4237 18.7382 76.2999 18.6652C76.1762 18.5921 76.0803 18.4898 76.0122 18.3583C75.9442 18.2238 75.9101 18.0704 75.9101 17.898C75.9101 17.7372 75.938 17.5838 75.9937 17.4377C76.0525 17.2886 76.1329 17.1571 76.235 17.0431C76.3371 16.9292 76.4577 16.8386 76.5969 16.7713C76.7362 16.7041 76.8878 16.6705 77.0517 16.6705ZM76.7733 18.6213C76.8816 18.6213 76.979 18.5921 77.0657 18.5336C77.1523 18.4752 77.2265 18.3963 77.2884 18.2969C77.3503 18.1946 77.3967 18.0777 77.4276 17.9462C77.4617 17.8147 77.4787 17.6759 77.4787 17.5297C77.4787 17.369 77.4586 17.2375 77.4183 17.1352C77.3781 17.03 77.3224 16.9525 77.2513 16.9029C77.1801 16.8502 77.0997 16.8239 77.01 16.8239C76.9017 16.8239 76.8042 16.8532 76.7176 16.9116C76.631 16.9701 76.5567 17.0504 76.4949 17.1527C76.433 17.2521 76.385 17.3675 76.351 17.4991C76.3201 17.6306 76.3046 17.7694 76.3046 17.9155C76.3046 18.0763 76.3247 18.2092 76.3649 18.3144C76.4051 18.4167 76.4608 18.4942 76.532 18.5468C76.6031 18.5965 76.6836 18.6213 76.7733 18.6213Z" fill="#ffffff"/>
<path d="M78.9479 19.8707C78.818 19.8707 78.702 19.8488 78.5999 19.8049C78.5009 19.764 78.422 19.707 78.3632 19.634C78.3044 19.5609 78.275 19.4791 78.275 19.3885C78.275 19.3067 78.2982 19.2365 78.3446 19.1781C78.391 19.1225 78.4514 19.0948 78.5256 19.0948C78.5844 19.0948 78.6293 19.1123 78.6602 19.1474C78.6942 19.1824 78.7112 19.2277 78.7112 19.2833C78.7112 19.3417 78.6911 19.3973 78.6509 19.4499C78.6138 19.5025 78.5627 19.5346 78.4978 19.5463C78.5349 19.5931 78.589 19.6325 78.6602 19.6647C78.7313 19.6997 78.8164 19.7173 78.9154 19.7173C79.0546 19.7173 79.1707 19.6837 79.2635 19.6164C79.3594 19.5521 79.4367 19.4455 79.4955 19.2964C79.5574 19.1474 79.6069 18.9486 79.644 18.7002L79.6858 18.4284C79.6239 18.5219 79.5373 18.6038 79.4259 18.6739C79.3176 18.7411 79.1846 18.7747 79.0268 18.7747C78.8319 18.7747 78.6865 18.7178 78.5906 18.6038C78.4978 18.4898 78.4653 18.3393 78.4931 18.1522L78.6741 16.8897L78.6509 16.8678H78.3075L78.3307 16.7143C78.4514 16.7143 78.5658 16.7129 78.6741 16.71C78.7855 16.707 78.9031 16.7012 79.0268 16.6924L79.05 16.7143L78.8412 18.161C78.8319 18.2282 78.8334 18.294 78.8458 18.3583C78.8613 18.4226 78.8922 18.4752 78.9386 18.5161C78.985 18.557 79.0485 18.5775 79.1289 18.5775C79.2372 18.5775 79.3362 18.5439 79.4259 18.4766C79.5156 18.4065 79.5914 18.3071 79.6533 18.1785C79.7183 18.05 79.7631 17.898 79.7879 17.7226L79.9132 16.8897L79.89 16.8678H79.5466L79.5698 16.7143C79.6904 16.7143 79.8049 16.7129 79.9132 16.71C80.0246 16.707 80.1421 16.7012 80.2659 16.6924L80.2891 16.7143L79.9921 18.7309C79.9704 18.8887 79.9317 19.0363 79.876 19.1737C79.8234 19.311 79.7538 19.4323 79.6672 19.5375C79.5806 19.6427 79.4769 19.7246 79.3563 19.783C79.2387 19.8415 79.1026 19.8707 78.9479 19.8707Z" fill="#ffffff"/>
<path d="M82.3399 18.7747C82.1976 18.7747 82.0939 18.7309 82.029 18.6432C81.964 18.5556 81.9424 18.4387 81.964 18.2925L82.1728 16.8897L82.1496 16.8678H81.8016L81.8248 16.7143C82.0104 16.7027 82.1574 16.6237 82.2656 16.4776C82.377 16.3286 82.4637 16.1006 82.5255 15.7937H82.688L82.5487 16.7143H83.1102L83.087 16.8678H82.5487L82.5255 16.8897L82.3121 18.3144C82.2966 18.4226 82.3012 18.4942 82.326 18.5293C82.3538 18.5614 82.3863 18.5775 82.4234 18.5775C82.4946 18.5775 82.5627 18.5439 82.6276 18.4766C82.6957 18.4065 82.7607 18.3086 82.8225 18.1829L82.9664 18.2575C82.8921 18.4182 82.8071 18.5453 82.7112 18.6388C82.6183 18.7294 82.4946 18.7747 82.3399 18.7747Z" fill="#ffffff"/>
<path d="M85.5696 18.2706L85.7135 18.3451C85.6361 18.503 85.5526 18.614 85.4629 18.6783C85.3763 18.7426 85.2788 18.7747 85.1705 18.7747C85.0437 18.7747 84.9447 18.7338 84.8735 18.652C84.8055 18.5672 84.7869 18.4313 84.8178 18.2443L84.9663 17.3325C84.9787 17.2682 84.9818 17.201 84.9756 17.1308C84.9694 17.0577 84.9447 16.9964 84.9014 16.9467C84.8611 16.8941 84.79 16.8678 84.6879 16.8678C84.6322 16.8678 84.5688 16.878 84.4976 16.8985C84.4265 16.9189 84.3553 16.9598 84.2842 17.0212C84.2161 17.0797 84.1542 17.1644 84.0985 17.2755C84.0428 17.3865 84.0011 17.5327 83.9732 17.7139L83.8201 18.7309H83.4674L83.9222 15.7061L83.899 15.6841H83.5556L83.5788 15.5307C83.6994 15.5307 83.8139 15.5293 83.9222 15.5263C84.0336 15.5234 84.1511 15.5176 84.2749 15.5088L84.2981 15.5307L84.0753 17.0168C84.1372 16.9233 84.2238 16.8429 84.3352 16.7757C84.4497 16.7056 84.592 16.6705 84.7621 16.6705C84.9694 16.6705 85.1226 16.7275 85.2216 16.8415C85.3237 16.9555 85.3592 17.1045 85.3283 17.2886L85.1612 18.3057C85.1489 18.3963 85.152 18.465 85.1705 18.5117C85.1891 18.5556 85.22 18.5775 85.2633 18.5775C85.3159 18.5775 85.367 18.5497 85.4165 18.4942C85.4691 18.4357 85.5201 18.3612 85.5696 18.2706Z" fill="#ffffff"/>
<path d="M86.8606 18.7747C86.6905 18.7747 86.5435 18.7411 86.4198 18.6739C86.296 18.6038 86.2001 18.5029 86.132 18.3714C86.064 18.2399 86.0299 18.0821 86.0299 17.898C86.0299 17.6613 86.0825 17.4508 86.1877 17.2667C86.296 17.0797 86.4414 16.9335 86.6239 16.8283C86.8096 16.7231 87.0169 16.6705 87.2458 16.6705C87.3479 16.6705 87.4453 16.6837 87.5382 16.71C87.6341 16.7333 87.7114 16.7743 87.7702 16.8327C87.829 16.8882 87.8584 16.9642 87.8584 17.0607C87.8584 17.163 87.8181 17.2565 87.7377 17.3412C87.6573 17.426 87.5459 17.5005 87.4036 17.5648C87.2644 17.6291 87.105 17.6817 86.9256 17.7226C86.7461 17.7606 86.559 17.7869 86.3641 17.8015V17.6613C86.5188 17.6466 86.6626 17.6233 86.7957 17.5911C86.9318 17.559 87.0509 17.5195 87.153 17.4728C87.2551 17.4231 87.334 17.3661 87.3897 17.3018C87.4484 17.2346 87.4778 17.1615 87.4778 17.0826C87.4778 17.0037 87.4531 16.9408 87.4036 16.8941C87.3572 16.8473 87.2876 16.8239 87.1947 16.8239C87.0803 16.8239 86.9751 16.8517 86.8792 16.9072C86.7833 16.9628 86.6997 17.0402 86.6286 17.1396C86.5574 17.2389 86.5033 17.3544 86.4662 17.4859C86.429 17.6145 86.4105 17.7548 86.4105 17.9067C86.4105 18.0704 86.4321 18.2034 86.4754 18.3057C86.5219 18.408 86.5837 18.4825 86.6611 18.5293C86.7415 18.576 86.8328 18.5994 86.9349 18.5994C87.0679 18.5994 87.1886 18.5585 87.2968 18.4766C87.4082 18.3948 87.4964 18.3028 87.5614 18.2005L87.7052 18.275C87.6588 18.3539 87.5954 18.4313 87.5149 18.5073C87.4376 18.5833 87.3448 18.6476 87.2365 18.7002C87.1282 18.7499 87.0029 18.7747 86.8606 18.7747Z" fill="#ffffff"/>
<path d="M89.2204 17.8936C89.2204 17.7124 89.2482 17.5473 89.3039 17.3982C89.3596 17.2492 89.4354 17.1206 89.5313 17.0124C89.6303 16.9014 89.7417 16.8166 89.8654 16.7582C89.9892 16.6968 90.1176 16.6661 90.2506 16.6661C90.3682 16.6661 90.4827 16.6939 90.594 16.7494C90.7085 16.8049 90.7951 16.9058 90.8539 17.0519L91.0535 15.7061L91.0302 15.6841H90.6868L90.71 15.5307C90.8307 15.5307 90.9452 15.5293 91.0535 15.5263C91.1648 15.5234 91.2824 15.5176 91.4061 15.5088L91.4293 15.5307L91.021 18.3057C91.0086 18.3963 91.0117 18.465 91.0302 18.5117C91.0488 18.5556 91.0797 18.5775 91.1231 18.5775C91.1757 18.5775 91.2267 18.5497 91.2762 18.4942C91.3288 18.4357 91.3798 18.3612 91.4293 18.2706L91.5732 18.3451C91.4959 18.503 91.4123 18.614 91.3226 18.6783C91.236 18.7426 91.1385 18.7747 91.0302 18.7747C90.922 18.7747 90.8353 18.7455 90.7704 18.6871C90.7054 18.6257 90.6714 18.5307 90.6683 18.4021C90.5909 18.519 90.4919 18.6096 90.3713 18.6739C90.2506 18.7382 90.1176 18.7704 89.9722 18.7704C89.8237 18.7704 89.6922 18.7368 89.5777 18.6695C89.4663 18.5994 89.3782 18.5 89.3132 18.3714C89.2513 18.2399 89.2204 18.0806 89.2204 17.8936ZM89.6149 17.9155C89.6149 18.1347 89.6535 18.2998 89.7309 18.4109C89.8082 18.519 89.918 18.5731 90.0604 18.5731C90.2089 18.5731 90.3372 18.5234 90.4455 18.424C90.5538 18.3218 90.6373 18.1917 90.6961 18.0339C90.758 17.8731 90.7889 17.7036 90.7889 17.5254C90.7889 17.3003 90.7425 17.1337 90.6497 17.0256C90.5569 16.9175 90.4393 16.8634 90.297 16.8634C90.1485 16.8634 90.0232 16.9145 89.9211 17.0168C89.8221 17.1162 89.7463 17.2463 89.6937 17.407C89.6411 17.5648 89.6149 17.7343 89.6149 17.9155Z" fill="#ffffff"/>
<path d="M92.8178 18.2706L92.9617 18.3451C92.8843 18.503 92.8008 18.614 92.7111 18.6783C92.6244 18.7426 92.527 18.7747 92.4187 18.7747C92.2919 18.7747 92.1944 18.7338 92.1264 18.652C92.0583 18.5672 92.0382 18.4313 92.066 18.2443L92.2748 16.8897L92.2516 16.8678H91.9082L91.9314 16.7143C92.0521 16.7143 92.1666 16.7129 92.2748 16.71C92.3862 16.707 92.5038 16.7012 92.6275 16.6924L92.6507 16.7143L92.4094 18.3057C92.397 18.3963 92.4001 18.465 92.4187 18.5117C92.4373 18.5556 92.4682 18.5775 92.5115 18.5775C92.5641 18.5775 92.6152 18.5497 92.6646 18.4942C92.7172 18.4357 92.7683 18.3612 92.8178 18.2706ZM92.5115 16.2321C92.4527 16.2321 92.4048 16.2131 92.3677 16.1751C92.3305 16.1371 92.312 16.0918 92.312 16.0392C92.312 15.9633 92.3383 15.896 92.3909 15.8376C92.4435 15.7791 92.5115 15.7499 92.5951 15.7499C92.6569 15.7499 92.7049 15.7689 92.7389 15.8069C92.776 15.8449 92.7946 15.8902 92.7946 15.9428C92.7946 16.0159 92.7683 16.0831 92.7157 16.1444C92.6631 16.2029 92.5951 16.2321 92.5115 16.2321Z" fill="#ffffff"/>
<path d="M93.0166 19.8707C92.9145 19.8707 92.8325 19.8502 92.7706 19.8093C92.7056 19.7713 92.6592 19.7217 92.6314 19.6603C92.6004 19.6018 92.585 19.5419 92.585 19.4805C92.585 19.4075 92.6066 19.3446 92.6499 19.292C92.6933 19.2424 92.7505 19.2175 92.8216 19.2175C92.8835 19.2175 92.9315 19.2351 92.9655 19.2701C92.9995 19.3081 93.0166 19.3563 93.0166 19.4148C93.0166 19.4791 92.9933 19.5375 92.9469 19.5901C92.9005 19.6457 92.8464 19.6734 92.7845 19.6734C92.7257 19.6734 92.684 19.653 92.6592 19.6121C92.6345 19.5741 92.6221 19.539 92.6221 19.5068L92.7567 19.5156C92.7598 19.5799 92.7845 19.6296 92.8309 19.6647C92.8773 19.6997 92.9284 19.7173 92.9841 19.7173C93.0212 19.7173 93.0614 19.7085 93.1047 19.691C93.148 19.6734 93.1883 19.6413 93.2254 19.5945C93.2656 19.5478 93.3012 19.4835 93.3321 19.4016C93.363 19.3198 93.3847 19.2146 93.3971 19.086L93.643 16.8897L93.6245 16.8678H94.0236L93.9957 16.8897L93.7591 19.0071C93.7374 19.2146 93.691 19.3812 93.6198 19.5068C93.5487 19.6354 93.4605 19.7275 93.3553 19.783C93.2532 19.8415 93.1403 19.8707 93.0166 19.8707ZM93.2811 16.8678L93.295 16.7143H94.6361L94.6222 16.8678H93.2811ZM93.6662 16.7143L93.708 16.3461C93.7328 16.1357 93.7807 15.9676 93.8519 15.842C93.923 15.7163 94.0097 15.6257 94.1117 15.5702C94.2138 15.5146 94.3237 15.4869 94.4412 15.4869C94.5495 15.4869 94.6346 15.5088 94.6965 15.5526C94.7614 15.5935 94.8063 15.6432 94.831 15.7017C94.8589 15.7601 94.8728 15.8171 94.8728 15.8727C94.8728 15.9457 94.8512 16.0086 94.8078 16.0612C94.7645 16.1138 94.7073 16.1401 94.6361 16.1401C94.5774 16.1401 94.5294 16.1211 94.4923 16.0831C94.4582 16.0451 94.4412 15.9983 94.4412 15.9428C94.4412 15.8756 94.4644 15.8157 94.5108 15.7631C94.5573 15.7105 94.6129 15.6841 94.6779 15.6841C94.7336 15.6841 94.7738 15.7031 94.7986 15.7411C94.8233 15.7791 94.8357 15.8157 94.8357 15.8507L94.7058 15.8463C94.7027 15.7821 94.6779 15.7324 94.6315 15.6973C94.5851 15.6593 94.534 15.6403 94.4784 15.6403C94.4412 15.6403 94.401 15.6505 94.3577 15.671C94.3175 15.6885 94.2773 15.7207 94.237 15.7674C94.1999 15.8142 94.1659 15.8785 94.1349 15.9603C94.1071 16.0422 94.0854 16.1474 94.07 16.276L94.0189 16.7143H93.6662Z" fill="#ffffff"/>
<path d="M94.3308 19.8707C94.2287 19.8707 94.1467 19.8502 94.0848 19.8093C94.0199 19.7713 93.9735 19.7217 93.9456 19.6603C93.9147 19.6018 93.8992 19.5419 93.8992 19.4805C93.8992 19.4075 93.9209 19.3446 93.9642 19.292C94.0075 19.2424 94.0647 19.2175 94.1359 19.2175C94.1978 19.2175 94.2457 19.2351 94.2798 19.2701C94.3138 19.3081 94.3308 19.3563 94.3308 19.4148C94.3308 19.4791 94.3076 19.5375 94.2612 19.5901C94.2148 19.6457 94.1606 19.6734 94.0988 19.6734C94.04 19.6734 93.9982 19.653 93.9735 19.6121C93.9487 19.5741 93.9363 19.539 93.9363 19.5068L94.0709 19.5156C94.074 19.5799 94.0988 19.6296 94.1452 19.6647C94.1916 19.6997 94.2426 19.7173 94.2983 19.7173C94.3354 19.7173 94.3757 19.7085 94.419 19.691C94.4623 19.6734 94.5025 19.6413 94.5396 19.5945C94.5799 19.5478 94.6154 19.4835 94.6464 19.4016C94.6773 19.3198 94.699 19.2146 94.7113 19.086L94.9573 16.8897L94.9387 16.8678H95.3378L95.31 16.8897L95.0733 19.0071C95.0516 19.2146 95.0052 19.3812 94.9341 19.5068C94.8629 19.6354 94.7747 19.7275 94.6696 19.783C94.5675 19.8415 94.4546 19.8707 94.3308 19.8707ZM94.5953 16.8678L94.6092 16.7143H95.9504L95.9365 16.8678H94.5953ZM94.9805 16.7143L95.0222 16.3461C95.047 16.1357 95.095 15.9676 95.1661 15.842C95.2373 15.7163 95.3239 15.6257 95.426 15.5702C95.5281 15.5146 95.6379 15.4869 95.7555 15.4869C95.8638 15.4869 95.9488 15.5088 96.0107 15.5526C96.0757 15.5935 96.1206 15.6432 96.1453 15.7017C96.1731 15.7601 96.1871 15.8171 96.1871 15.8727C96.1871 15.9457 96.1654 16.0086 96.1221 16.0612C96.0788 16.1138 96.0215 16.1401 95.9504 16.1401C95.8916 16.1401 95.8436 16.1211 95.8065 16.0831C95.7725 16.0451 95.7555 15.9983 95.7555 15.9428C95.7555 15.8756 95.7787 15.8157 95.8251 15.7631C95.8715 15.7105 95.9272 15.6841 95.9922 15.6841C96.0478 15.6841 96.0881 15.7031 96.1128 15.7411C96.1376 15.7791 96.1499 15.8157 96.1499 15.8507L96.02 15.8463C96.0169 15.7821 95.9921 15.7324 95.9457 15.6973C95.8993 15.6593 95.8483 15.6403 95.7926 15.6403C95.7555 15.6403 95.7153 15.6505 95.672 15.671C95.6317 15.6885 95.5915 15.7207 95.5513 15.7674C95.5142 15.8142 95.4801 15.8785 95.4492 15.9603C95.4213 16.0422 95.3997 16.1474 95.3842 16.276L95.3332 16.7143H94.9805Z" fill="#ffffff"/>
<path d="M96.7356 18.7747C96.5654 18.7747 96.4185 18.7411 96.2947 18.6739C96.171 18.6038 96.0751 18.5029 96.007 18.3714C95.9389 18.2399 95.9049 18.0821 95.9049 17.898C95.9049 17.6613 95.9575 17.4508 96.0627 17.2667C96.171 17.0797 96.3164 16.9335 96.4989 16.8283C96.6846 16.7231 96.8918 16.6705 97.1208 16.6705C97.2229 16.6705 97.3203 16.6837 97.4131 16.71C97.509 16.7333 97.5864 16.7743 97.6452 16.8327C97.7039 16.8882 97.7333 16.9642 97.7333 17.0607C97.7333 17.163 97.6931 17.2565 97.6127 17.3412C97.5322 17.426 97.4209 17.5005 97.2786 17.5648C97.1393 17.6291 96.98 17.6817 96.8006 17.7226C96.6211 17.7606 96.434 17.7869 96.2391 17.8015V17.6613C96.3937 17.6466 96.5376 17.6233 96.6706 17.5911C96.8068 17.559 96.9259 17.5195 97.028 17.4728C97.1301 17.4231 97.2089 17.3661 97.2646 17.3018C97.3234 17.2346 97.3528 17.1615 97.3528 17.0826C97.3528 17.0037 97.3281 16.9408 97.2786 16.8941C97.2322 16.8473 97.1625 16.8239 97.0697 16.8239C96.9553 16.8239 96.8501 16.8517 96.7542 16.9072C96.6583 16.9628 96.5747 17.0402 96.5036 17.1396C96.4324 17.2389 96.3783 17.3544 96.3411 17.4859C96.304 17.6145 96.2855 17.7548 96.2855 17.9067C96.2855 18.0704 96.3071 18.2034 96.3504 18.3057C96.3968 18.408 96.4587 18.4825 96.5361 18.5293C96.6165 18.576 96.7078 18.5994 96.8098 18.5994C96.9429 18.5994 97.0635 18.5585 97.1718 18.4766C97.2832 18.3948 97.3714 18.3028 97.4363 18.2005L97.5802 18.275C97.5338 18.3539 97.4704 18.4313 97.3899 18.5073C97.3126 18.5833 97.2198 18.6476 97.1115 18.7002C97.0032 18.7499 96.8779 18.7747 96.7356 18.7747Z" fill="#ffffff"/>
<path d="M98.1372 18.7309L98.411 16.8897L98.3878 16.8678H98.0444L98.0676 16.7143C98.1883 16.7143 98.2996 16.7129 98.4017 16.71C98.5069 16.707 98.6214 16.7012 98.7451 16.6924L98.7683 16.7143L98.6988 17.1703H98.7219C98.7653 17.0914 98.8225 17.0139 98.8936 16.9379C98.9648 16.859 99.0468 16.7947 99.1396 16.745C99.2355 16.6954 99.3361 16.6705 99.4412 16.6705C99.531 16.6705 99.6006 16.6954 99.6501 16.745C99.7027 16.7947 99.729 16.8546 99.729 16.9248C99.729 17.0037 99.7042 17.0738 99.6547 17.1352C99.6052 17.1966 99.5372 17.2273 99.4505 17.2273C99.3825 17.2273 99.3283 17.2083 99.2881 17.1703C99.251 17.1323 99.2324 17.0811 99.2324 17.0168C99.2324 16.9759 99.2448 16.9321 99.2695 16.8853C99.1272 16.9408 98.9927 17.0592 98.8658 17.2404C98.7421 17.4187 98.6585 17.6379 98.6152 17.898L98.4899 18.7309H98.1372Z" fill="#ffffff"/>
<path d="M100.597 18.7747C100.427 18.7747 100.28 18.7411 100.156 18.6739C100.032 18.6038 99.9362 18.5029 99.8682 18.3714C99.8001 18.2399 99.7661 18.0821 99.7661 17.898C99.7661 17.6613 99.8187 17.4508 99.9239 17.2667C100.032 17.0797 100.178 16.9335 100.36 16.8283C100.546 16.7231 100.753 16.6705 100.982 16.6705C101.084 16.6705 101.181 16.6837 101.274 16.71C101.37 16.7333 101.448 16.7743 101.506 16.8327C101.565 16.8882 101.595 16.9642 101.595 17.0607C101.595 17.163 101.554 17.2565 101.474 17.3412C101.393 17.426 101.282 17.5005 101.14 17.5648C101.001 17.6291 100.841 17.6817 100.662 17.7226C100.482 17.7606 100.295 17.7869 100.1 17.8015V17.6613C100.255 17.6466 100.399 17.6233 100.532 17.5911C100.668 17.559 100.787 17.5195 100.889 17.4728C100.991 17.4231 101.07 17.3661 101.126 17.3018C101.185 17.2346 101.214 17.1615 101.214 17.0826C101.214 17.0037 101.189 16.9408 101.14 16.8941C101.093 16.8473 101.024 16.8239 100.931 16.8239C100.816 16.8239 100.711 16.8517 100.615 16.9072C100.519 16.9628 100.436 17.0402 100.365 17.1396C100.294 17.2389 100.239 17.3544 100.202 17.4859C100.165 17.6145 100.147 17.7548 100.147 17.9067C100.147 18.0704 100.168 18.2034 100.212 18.3057C100.258 18.408 100.32 18.4825 100.397 18.5293C100.478 18.576 100.569 18.5994 100.671 18.5994C100.804 18.5994 100.925 18.5585 101.033 18.4766C101.144 18.3948 101.233 18.3028 101.298 18.2005L101.441 18.275C101.395 18.3539 101.332 18.4313 101.251 18.5073C101.174 18.5833 101.081 18.6476 100.973 18.7002C100.864 18.7499 100.739 18.7747 100.597 18.7747Z" fill="#ffffff"/>
<path d="M104.096 18.2706L104.24 18.3451C104.162 18.503 104.079 18.614 103.989 18.6783C103.903 18.7426 103.805 18.7747 103.697 18.7747C103.57 18.7747 103.471 18.7338 103.4 18.652C103.332 18.5672 103.313 18.4313 103.344 18.2443L103.493 17.3325C103.505 17.2682 103.508 17.201 103.502 17.1308C103.496 17.0577 103.471 16.9964 103.428 16.9467C103.387 16.8941 103.316 16.8678 103.214 16.8678C103.159 16.8678 103.095 16.878 103.024 16.8985C102.953 16.916 102.882 16.9525 102.811 17.0081C102.742 17.0607 102.681 17.1396 102.625 17.2448C102.572 17.3471 102.534 17.483 102.509 17.6525L102.351 18.7309H101.998L102.272 16.8897L102.249 16.8678H101.906L101.929 16.7143C102.049 16.7143 102.161 16.7129 102.263 16.71C102.368 16.707 102.483 16.7012 102.606 16.6924L102.63 16.7143L102.578 17.0256H102.602C102.66 16.9321 102.747 16.8502 102.862 16.7801C102.976 16.707 103.118 16.6705 103.288 16.6705C103.496 16.6705 103.649 16.7275 103.748 16.8415C103.85 16.9555 103.886 17.1045 103.855 17.2886L103.688 18.3057C103.675 18.3963 103.678 18.465 103.697 18.5117C103.715 18.5556 103.746 18.5775 103.79 18.5775C103.842 18.5775 103.893 18.5497 103.943 18.4942C103.995 18.4357 104.046 18.3612 104.096 18.2706Z" fill="#ffffff"/>
<path d="M105.378 18.7747C105.254 18.7747 105.141 18.7558 105.039 18.7178C104.937 18.6768 104.849 18.6199 104.774 18.5468C104.703 18.4708 104.648 18.3787 104.607 18.2706C104.57 18.1625 104.552 18.0412 104.552 17.9067C104.552 17.7372 104.581 17.578 104.64 17.4289C104.699 17.2799 104.781 17.1483 104.886 17.0344C104.991 16.9204 105.113 16.8312 105.252 16.767C105.392 16.7027 105.542 16.6705 105.703 16.6705C105.829 16.6705 105.941 16.691 106.037 16.7319C106.136 16.7699 106.211 16.8239 106.264 16.8941C106.32 16.9613 106.348 17.0387 106.348 17.1264C106.348 17.2083 106.324 17.2784 106.278 17.3369C106.232 17.3924 106.171 17.4201 106.097 17.4201C106.038 17.4201 105.992 17.4026 105.958 17.3675C105.927 17.3325 105.911 17.2872 105.911 17.2316C105.911 17.1644 105.935 17.103 105.981 17.0475C106.027 16.992 106.089 16.9642 106.167 16.9642C106.228 16.9642 106.267 16.9818 106.283 17.0168C106.301 17.0519 106.31 17.0899 106.31 17.1308L106.171 17.1615C106.171 17.0943 106.153 17.0358 106.116 16.9861C106.082 16.9335 106.032 16.8941 105.967 16.8678C105.905 16.8386 105.829 16.8239 105.74 16.8239C105.61 16.8239 105.495 16.8532 105.396 16.9116C105.3 16.9701 105.218 17.0504 105.15 17.1527C105.082 17.2521 105.031 17.3675 104.997 17.4991C104.963 17.6276 104.946 17.7621 104.946 17.9024C104.946 18.1508 104.994 18.3291 105.09 18.4372C105.189 18.5453 105.31 18.5994 105.452 18.5994C105.594 18.5994 105.713 18.5585 105.809 18.4766C105.908 18.3919 105.992 18.2998 106.06 18.2005L106.204 18.275C106.151 18.3597 106.088 18.4401 106.013 18.5161C105.942 18.5921 105.854 18.6549 105.749 18.7046C105.647 18.7514 105.523 18.7747 105.378 18.7747Z" fill="#ffffff"/>
<path d="M107.481 18.7747C107.311 18.7747 107.164 18.7411 107.04 18.6739C106.916 18.6038 106.82 18.5029 106.752 18.3714C106.684 18.2399 106.65 18.0821 106.65 17.898C106.65 17.6613 106.703 17.4508 106.808 17.2667C106.916 17.0797 107.061 16.9335 107.244 16.8283C107.43 16.7231 107.637 16.6705 107.866 16.6705C107.968 16.6705 108.065 16.6837 108.158 16.71C108.254 16.7333 108.331 16.7743 108.39 16.8327C108.449 16.8882 108.478 16.9642 108.478 17.0607C108.478 17.163 108.438 17.2565 108.358 17.3412C108.277 17.426 108.166 17.5005 108.024 17.5648C107.884 17.6291 107.725 17.6817 107.546 17.7226C107.366 17.7606 107.179 17.7869 106.984 17.8015V17.6613C107.139 17.6466 107.283 17.6233 107.416 17.5911C107.552 17.559 107.671 17.5195 107.773 17.4728C107.875 17.4231 107.954 17.3661 108.01 17.3018C108.069 17.2346 108.098 17.1615 108.098 17.0826C108.098 17.0037 108.073 16.9408 108.024 16.8941C107.977 16.8473 107.908 16.8239 107.815 16.8239C107.7 16.8239 107.595 16.8517 107.499 16.9072C107.403 16.9628 107.32 17.0402 107.249 17.1396C107.178 17.2389 107.123 17.3544 107.086 17.4859C107.049 17.6145 107.031 17.7548 107.031 17.9067C107.031 18.0704 107.052 18.2034 107.096 18.3057C107.142 18.408 107.204 18.4825 107.281 18.5293C107.362 18.576 107.453 18.5994 107.555 18.5994C107.688 18.5994 107.809 18.5585 107.917 18.4766C108.028 18.3948 108.116 18.3028 108.181 18.2005L108.325 18.275C108.279 18.3539 108.215 18.4313 108.135 18.5073C108.058 18.5833 107.965 18.6476 107.857 18.7002C107.748 18.7499 107.623 18.7747 107.481 18.7747Z" fill="#ffffff"/>
<path d="M109.286 15.7499C109.345 15.7499 109.396 15.7733 109.439 15.82C109.483 15.8639 109.495 15.9282 109.476 16.0129L109.026 17.9418H108.887L109.012 16.0129C109.018 15.9282 109.051 15.8639 109.11 15.82C109.168 15.7733 109.227 15.7499 109.286 15.7499ZM108.836 18.7747C108.771 18.7747 108.717 18.7543 108.673 18.7134C108.633 18.6695 108.613 18.6184 108.613 18.5599C108.613 18.5103 108.627 18.4664 108.655 18.4284C108.683 18.3875 108.718 18.3554 108.762 18.332C108.808 18.3057 108.856 18.2925 108.906 18.2925C108.97 18.2925 109.023 18.3144 109.063 18.3583C109.107 18.3992 109.128 18.4489 109.128 18.5073C109.128 18.5541 109.114 18.5979 109.087 18.6388C109.059 18.6798 109.022 18.7119 108.975 18.7353C108.932 18.7616 108.885 18.7747 108.836 18.7747Z" fill="#ffffff"/>
</svg>