<svg xmlns="http://www.w3.org/2000/svg" width="104" height="20" viewBox="0 0 104 20" fill="none">
<path d="M11.5544 14.4086L2.48366 4.47312H2.37567L1.40381 0.967742L1.18784 0.752687H0V0H3.02358L12.0943 9.93548H12.2023V14.4086H11.5544ZM0 14.4086V13.6559H1.18784L1.40381 13.4409V0.967742L2.37567 4.47312V13.4409L2.59164 13.6559H4.42739V14.4086H0ZM14.578 0V0.752687H13.3902L13.1742 0.967742V14.4086H12.2023V0.967742L11.9863 0.752687H10.1506V0H14.578Z" fill="#ffffff"/>
<path d="M22.0632 13.5484C22.7831 13.5484 23.431 13.3763 24.0069 13.0323C24.5973 12.6882 25.0868 12.3082 25.4755 11.8925L26.0587 12.3871C25.7563 12.7455 25.4036 13.0968 25.0004 13.4409C24.6117 13.7849 24.1221 14.0717 23.5318 14.3011C22.9415 14.5161 22.1928 14.6237 21.2857 14.6237C20.2923 14.6237 19.378 14.4158 18.5429 14C17.7078 13.5699 17.0383 12.9534 16.5344 12.1505C16.0304 11.3477 15.7785 10.3799 15.7785 9.24731C15.7785 8.1147 16.0304 7.14695 16.5344 6.34409C17.0383 5.54122 17.7078 4.9319 18.5429 4.51613C19.378 4.08602 20.2923 3.87097 21.2857 3.87097C22.2216 3.87097 23.0567 4.05018 23.791 4.4086C24.5253 4.76702 25.1012 5.32616 25.5187 6.08602C25.9507 6.84588 26.1667 7.82796 26.1667 9.03226H18.4781V8.27957H22.8191C22.7615 7.03226 22.5887 6.1147 22.3008 5.52688C22.0272 4.92473 21.6169 4.62366 21.0698 4.62366C20.681 4.62366 20.3499 4.8172 20.0763 5.2043C19.8027 5.57706 19.594 6.1147 19.45 6.8172C19.306 7.50538 19.234 8.31541 19.234 9.24731C19.234 10.1649 19.3348 10.9462 19.5364 11.5914C19.7523 12.2222 20.0691 12.7097 20.4866 13.0538C20.9042 13.3835 21.4297 13.5484 22.0632 13.5484Z" fill="#ffffff"/>
<path d="M32.3282 14.4086V13.6559H33.4729L33.6888 13.4409L27.9008 4.83871H26.713V4.08602H33.0409V4.83871H32.0043L31.7883 5.05376L37.5763 13.6559H38.7857V14.4086H32.3282ZM26.7562 14.4086V13.6559H27.9656L31.5507 8.98925H32.609L29.283 13.4409L29.499 13.6559H30.73V14.4086H26.7562ZM33.0193 8.98925L36.0861 5.05376L35.8701 4.83871H34.6607V4.08602H38.5266V4.83871H37.3171L34.0776 8.98925H33.0193Z" fill="#ffffff"/>
<path d="M46.9928 12.2151L47.5759 12.7097C47.2303 13.3262 46.8344 13.7993 46.388 14.129C45.9417 14.4588 45.3586 14.6237 44.6387 14.6237C44.0196 14.6237 43.4293 14.5018 42.8677 14.2581C42.3206 14 41.8671 13.6057 41.5071 13.0753C41.1616 12.5448 40.9888 11.8781 40.9888 11.0753V5.05376L40.7728 4.83871H39.0451V4.08602C40.1249 3.87097 41.0608 3.40502 41.8527 2.68817C42.6446 1.97133 43.1485 1.07527 43.3645 0H44.1204V4.08602H47.3599V4.83871H44.2931L44.1204 5.05376V11.6344C44.1204 12.0932 44.2211 12.4731 44.4227 12.7742C44.6387 13.0753 44.941 13.2258 45.3298 13.2258C45.5746 13.2258 45.8409 13.1541 46.1289 13.0108C46.4168 12.853 46.7048 12.5878 46.9928 12.2151Z" fill="#ffffff"/>
<path d="M58.3337 3.87097C59.2264 3.87097 60.0471 4 60.7958 4.25806C61.5589 4.50179 62.1708 4.88172 62.6315 5.39785C63.1067 5.89964 63.3442 6.53763 63.3442 7.31183C63.3442 8.08602 63.1067 8.73118 62.6315 9.24731C62.1708 9.7491 61.5589 10.129 60.7958 10.3871C60.0471 10.6308 59.2264 10.7527 58.3337 10.7527C57.4555 10.7527 56.642 10.6308 55.8933 10.3871C55.1446 10.129 54.5399 9.7491 54.0791 9.24731C53.6328 8.73118 53.4096 8.08602 53.4096 7.31183C53.4096 6.53763 53.6328 5.89964 54.0791 5.39785C54.5399 4.88172 55.1446 4.50179 55.8933 4.25806C56.642 4 57.4555 3.87097 58.3337 3.87097ZM58.4201 10C58.8521 10 59.2408 9.79928 59.5864 9.39785C59.9319 8.99642 60.1047 8.32975 60.1047 7.39785C60.1047 6.70968 60.0039 6.16487 59.8023 5.76344C59.6152 5.36201 59.3776 5.07527 59.0896 4.90323C58.8161 4.71685 58.5353 4.62366 58.2473 4.62366C57.7866 4.62366 57.4051 4.83871 57.1027 5.26882C56.8003 5.68459 56.6492 6.32975 56.6492 7.2043C56.6492 7.87814 56.7356 8.42294 56.9083 8.83871C57.0811 9.25448 57.3043 9.55556 57.5778 9.74193C57.8514 9.91398 58.1322 10 58.4201 10ZM56.0013 11.4194C56.0013 11.7491 56.1524 11.9928 56.4548 12.1505C56.7571 12.3082 57.1603 12.4229 57.6642 12.4946C58.1682 12.552 58.7153 12.6093 59.3056 12.6667C59.9103 12.7097 60.5078 12.7814 61.0982 12.8817C61.7029 12.9821 62.2572 13.1398 62.7611 13.3548C63.2651 13.5699 63.6682 13.8853 63.9706 14.3011C64.2729 14.7025 64.4241 15.2401 64.4241 15.914C64.4241 17.0896 63.9058 18.0645 62.8691 18.8387C61.8325 19.6129 60.2847 20 58.2257 20C57.4915 20 56.8147 19.9427 56.1956 19.828C55.5909 19.7276 55.0654 19.5556 54.619 19.3118C54.1727 19.0824 53.82 18.7885 53.5608 18.4301C53.316 18.0717 53.1936 17.6416 53.1936 17.1398C53.1936 16.4946 53.424 15.957 53.8847 15.5269C54.3455 15.0968 55.0798 14.81 56.0876 14.6667L56.4116 14.8602C56.1668 15.1613 56.0013 15.4695 55.9149 15.7849C55.8285 16.1004 55.7853 16.4229 55.7853 16.7527C55.7853 17.4982 56.0085 18.1004 56.4548 18.5591C56.9155 19.0179 57.621 19.2473 58.5713 19.2473C59.1616 19.2473 59.6799 19.1541 60.1263 18.9677C60.587 18.7957 60.947 18.552 61.2061 18.2366C61.4797 17.9355 61.6165 17.5914 61.6165 17.2043C61.6165 16.7742 61.4725 16.4444 61.1845 16.2151C60.8966 16 60.515 15.8351 60.0399 15.7204C59.5648 15.6201 59.0392 15.534 58.4633 15.4624C57.9018 15.405 57.3331 15.3333 56.7571 15.2473C56.1956 15.1613 55.6773 15.0251 55.2022 14.8387C54.727 14.6667 54.3455 14.4086 54.0575 14.0645C53.7696 13.7204 53.6256 13.2545 53.6256 12.6667C53.6256 11.8781 53.8775 11.2903 54.3815 10.9032C54.8854 10.5161 55.5045 10.2079 56.2388 9.97849L56.5412 10.3656C56.3252 10.4946 56.1812 10.6667 56.1092 10.8817C56.0372 11.0824 56.0013 11.2616 56.0013 11.4194ZM60.5366 4.25806C60.8822 3.67025 61.2709 3.16129 61.7029 2.73118C62.1348 2.28674 62.6531 2.06452 63.2579 2.06452C63.7618 2.06452 64.1145 2.20789 64.3161 2.49462C64.5321 2.78136 64.6401 3.06093 64.6401 3.33333C64.6401 3.64875 64.5321 3.92831 64.3161 4.17204C64.1145 4.40143 63.8266 4.51613 63.4522 4.51613C63.0779 4.51613 62.7827 4.40143 62.5667 4.17204C62.3652 3.92831 62.2644 3.64875 62.2644 3.33333C62.2644 3.21864 62.3292 3.08961 62.4588 2.94624C62.6027 2.80287 62.7179 2.68817 62.8043 2.60215L62.7827 3.1828C62.5524 3.25448 62.2932 3.41219 62.0052 3.65591C61.7173 3.89964 61.4437 4.2509 61.1845 4.70968L60.5366 4.25806Z" fill="#ffffff"/>
<path d="M71.8376 13.5484C72.5575 13.5484 73.2054 13.3763 73.7813 13.0323C74.3717 12.6882 74.8612 12.3082 75.2499 11.8925L75.8331 12.3871C75.5307 12.7455 75.178 13.0968 74.7748 13.4409C74.3861 13.7849 73.8965 14.0717 73.3062 14.3011C72.7159 14.5161 71.9672 14.6237 71.0601 14.6237C70.0667 14.6237 69.1524 14.4158 68.3173 14C67.4822 13.5699 66.8127 12.9534 66.3088 12.1505C65.8048 11.3477 65.5529 10.3799 65.5529 9.24731C65.5529 8.1147 65.8048 7.14695 66.3088 6.34409C66.8127 5.54122 67.4822 4.9319 68.3173 4.51613C69.1524 4.08602 70.0667 3.87097 71.0601 3.87097C71.996 3.87097 72.8311 4.05018 73.5654 4.4086C74.2997 4.76702 74.8756 5.32616 75.2931 6.08602C75.7251 6.84588 75.941 7.82796 75.941 9.03226H68.2525V8.27957H72.5935C72.5359 7.03226 72.3631 6.1147 72.0752 5.52688C71.8016 4.92473 71.3913 4.62366 70.8441 4.62366C70.4554 4.62366 70.1242 4.8172 69.8507 5.2043C69.5771 5.57706 69.3683 6.1147 69.2244 6.8172C69.0804 7.50538 69.0084 8.31541 69.0084 9.24731C69.0084 10.1649 69.1092 10.9462 69.3108 11.5914C69.5267 12.2222 69.8435 12.7097 70.261 13.0538C70.6786 13.3835 71.2041 13.5484 71.8376 13.5484Z" fill="#ffffff"/>
<path d="M88.6389 13.4409L88.8549 13.6559H89.9347V14.4086H84.2115V13.6559H85.2914L85.5073 13.4409V6.88172C85.5073 6.19355 85.385 5.72043 85.1402 5.46237C84.9098 5.18996 84.5859 5.05376 84.1683 5.05376C83.722 5.05376 83.2972 5.21864 82.8941 5.54839C82.5054 5.87814 82.0806 6.46595 81.6199 7.31183V13.4409L81.8359 13.6559H82.9157V14.4086H77.1925V13.6559H78.2723L78.4883 13.4409V5.05376L78.2723 4.83871H77.1925V4.08602C77.5668 4.08602 77.9916 4.08602 78.4667 4.08602C78.9562 4.07168 79.4386 4.05018 79.9137 4.02151C80.3889 3.97849 80.8136 3.92831 81.1879 3.87097L81.4039 4.08602V5.91398H81.6199C81.951 5.3405 82.3974 4.86021 82.9589 4.47312C83.5204 4.07168 84.2979 3.87097 85.2914 3.87097C86.0689 3.87097 86.7024 4 87.1919 4.25806C87.6958 4.50179 88.063 4.83871 88.2934 5.26882C88.5237 5.68459 88.6389 6.15054 88.6389 6.66667V13.4409Z" fill="#ffffff"/>
<path d="M91.023 14.4086V13.7634L98.5388 0.967742L98.3228 0.752687H96.7678C96.0767 0.752687 95.4288 0.838709 94.8241 1.01075C94.2338 1.1828 93.6939 1.4767 93.2043 1.89247C92.7148 2.30824 92.2972 2.89606 91.9517 3.65591L91.239 3.44086L92.0165 0H102.513V0.645161L94.9969 13.4409L95.2128 13.6559H97.6533C98.69 13.6559 99.6402 13.3835 100.504 12.8387C101.368 12.2939 102.059 11.4552 102.577 10.3226H103.333L102.405 14.4086H91.023Z" fill="#ffffff"/>
</svg>