<svg width="239" height="40" viewBox="0 0 239 40" fill="none" xmlns="http://www.w3.org/2000/svg">
<g clip-path="url(#clip0_1_6)">
<path d="M25.5998 40L19.1998 22L25.9998 0H27.1998L37.5998 32.8L35.1998 40H25.5998Z" fill="#1A1A1A"/>
<path d="M27.2 0H13.2L0 40H14L27.2 0Z" fill="#04B0A8"/>
<path d="M32.8 0H46.8L60 40H46L32.8 0Z" fill="#04B0A8"/>
<path d="M68.1 14V3.8147e-07H69.74L76.02 10.58H75.14L81.34 3.8147e-07H82.98L83 14H81.08L81.06 3.02H81.52L76 12.3H75.08L69.52 3.02H70.02V14H68.1ZM91.1616 14.12C90.2816 14.12 89.4416 14 88.6416 13.76C87.8549 13.52 87.2349 13.2267 86.7816 12.88L87.5816 11.36C88.0349 11.6667 88.5949 11.9267 89.2616 12.14C89.9282 12.3533 90.6082 12.46 91.3016 12.46C92.1949 12.46 92.8349 12.3333 93.2216 12.08C93.6216 11.8267 93.8216 11.4733 93.8216 11.02C93.8216 10.6867 93.7016 10.4267 93.4616 10.24C93.2216 10.0533 92.9016 9.91333 92.5016 9.82C92.1149 9.72667 91.6816 9.64667 91.2016 9.58C90.7216 9.5 90.2416 9.40667 89.7616 9.3C89.2816 9.18 88.8416 9.02 88.4416 8.82C88.0416 8.60667 87.7216 8.32 87.4816 7.96C87.2416 7.58667 87.1216 7.09333 87.1216 6.48C87.1216 5.84 87.3016 5.28 87.6616 4.8C88.0216 4.32 88.5282 3.95333 89.1816 3.7C89.8482 3.43333 90.6349 3.3 91.5416 3.3C92.2349 3.3 92.9349 3.38667 93.6416 3.56C94.3616 3.72 94.9482 3.95333 95.4016 4.26L94.5816 5.78C94.1016 5.46 93.6016 5.24 93.0816 5.12C92.5616 5 92.0416 4.94 91.5216 4.94C90.6816 4.94 90.0549 5.08 89.6416 5.36C89.2282 5.62667 89.0216 5.97333 89.0216 6.4C89.0216 6.76 89.1416 7.04 89.3816 7.24C89.6349 7.42667 89.9549 7.57333 90.3416 7.68C90.7416 7.78667 91.1816 7.88 91.6616 7.96C92.1416 8.02667 92.6216 8.12 93.1016 8.24C93.5816 8.34667 94.0149 8.5 94.4016 8.7C94.8016 8.9 95.1216 9.18 95.3616 9.54C95.6149 9.9 95.7416 10.38 95.7416 10.98C95.7416 11.62 95.5549 12.1733 95.1816 12.64C94.8082 13.1067 94.2816 13.4733 93.6016 13.74C92.9216 13.9933 92.1082 14.12 91.1616 14.12ZM105.881 14.16C104.814 14.16 103.828 13.9867 102.921 13.64C102.028 13.28 101.248 12.78 100.581 12.14C99.9278 11.4867 99.4144 10.7267 99.0411 9.86C98.6678 8.99333 98.4811 8.04 98.4811 7C98.4811 5.96 98.6678 5.00667 99.0411 4.14C99.4144 3.27333 99.9344 2.52 100.601 1.88C101.268 1.22667 102.048 0.726667 102.941 0.38C103.848 0.0200009 104.834 -0.159999 105.901 -0.159999C106.981 -0.159999 107.974 0.0266679 108.881 0.400001C109.801 0.76 110.581 1.3 111.221 2.02L109.921 3.28C109.388 2.72 108.788 2.30667 108.121 2.04C107.454 1.76 106.741 1.62 105.981 1.62C105.194 1.62 104.461 1.75333 103.781 2.02C103.114 2.28667 102.534 2.66 102.041 3.14C101.548 3.62 101.161 4.19333 100.881 4.86C100.614 5.51333 100.481 6.22667 100.481 7C100.481 7.77333 100.614 8.49333 100.881 9.16C101.161 9.81333 101.548 10.38 102.041 10.86C102.534 11.34 103.114 11.7133 103.781 11.98C104.461 12.2467 105.194 12.38 105.981 12.38C106.741 12.38 107.454 12.2467 108.121 11.98C108.788 11.7 109.388 11.2733 109.921 10.7L111.221 11.96C110.581 12.68 109.801 13.2267 108.881 13.6C107.974 13.9733 106.974 14.16 105.881 14.16ZM119.085 14.12C118.018 14.12 117.072 13.8867 116.245 13.42C115.418 12.9533 114.765 12.3133 114.285 11.5C113.805 10.6733 113.565 9.74 113.565 8.7C113.565 7.64667 113.805 6.71333 114.285 5.9C114.765 5.08667 115.418 4.45333 116.245 4C117.072 3.53333 118.018 3.3 119.085 3.3C120.138 3.3 121.078 3.53333 121.905 4C122.745 4.45333 123.398 5.08667 123.865 5.9C124.345 6.7 124.585 7.63333 124.585 8.7C124.585 9.75333 124.345 10.6867 123.865 11.5C123.398 12.3133 122.745 12.9533 121.905 13.42C121.078 13.8867 120.138 14.12 119.085 14.12ZM119.085 12.44C119.765 12.44 120.372 12.2867 120.905 11.98C121.452 11.6733 121.878 11.24 122.185 10.68C122.492 10.1067 122.645 9.44667 122.645 8.7C122.645 7.94 122.492 7.28667 122.185 6.74C121.878 6.18 121.452 5.74667 120.905 5.44C120.372 5.13333 119.765 4.98 119.085 4.98C118.405 4.98 117.798 5.13333 117.265 5.44C116.732 5.74667 116.305 6.18 115.985 6.74C115.665 7.28667 115.505 7.94 115.505 8.7C115.505 9.44667 115.665 10.1067 115.985 10.68C116.305 11.24 116.732 11.6733 117.265 11.98C117.798 12.2867 118.405 12.44 119.085 12.44ZM128.44 14V3.4H130.28V6.28L130.1 5.56C130.394 4.82667 130.887 4.26667 131.58 3.88C132.274 3.49333 133.127 3.3 134.14 3.3V5.16C134.06 5.14667 133.98 5.14 133.9 5.14C133.834 5.14 133.767 5.14 133.7 5.14C132.674 5.14 131.86 5.44667 131.26 6.06C130.66 6.67333 130.36 7.56 130.36 8.72V14H128.44ZM143.327 14.12C142.447 14.12 141.64 13.92 140.907 13.52C140.187 13.1067 139.607 12.5 139.167 11.7C138.74 10.9 138.527 9.9 138.527 8.7C138.527 7.5 138.733 6.5 139.147 5.7C139.573 4.9 140.147 4.3 140.867 3.9C141.6 3.5 142.42 3.3 143.327 3.3C144.367 3.3 145.287 3.52667 146.087 3.98C146.887 4.43333 147.52 5.06667 147.987 5.88C148.453 6.68 148.687 7.62 148.687 8.7C148.687 9.78 148.453 10.7267 147.987 11.54C147.52 12.3533 146.887 12.9867 146.087 13.44C145.287 13.8933 144.367 14.12 143.327 14.12ZM137.707 17.88V3.4H139.547V6.26L139.427 8.72L139.627 11.18V17.88H137.707ZM143.167 12.44C143.847 12.44 144.453 12.2867 144.987 11.98C145.533 11.6733 145.96 11.24 146.267 10.68C146.587 10.1067 146.747 9.44667 146.747 8.7C146.747 7.94 146.587 7.28667 146.267 6.74C145.96 6.18 145.533 5.74667 144.987 5.44C144.453 5.13333 143.847 4.98 143.167 4.98C142.5 4.98 141.893 5.13333 141.347 5.44C140.813 5.74667 140.387 6.18 140.067 6.74C139.76 7.28667 139.607 7.94 139.607 8.7C139.607 9.44667 139.76 10.1067 140.067 10.68C140.387 11.24 140.813 11.6733 141.347 11.98C141.893 12.2867 142.5 12.44 143.167 12.44ZM152.54 14V3.4H154.38V6.28L154.2 5.56C154.493 4.82667 154.986 4.26667 155.68 3.88C156.373 3.49333 157.226 3.3 158.24 3.3V5.16C158.16 5.14667 158.08 5.14 158 5.14C157.933 5.14 157.866 5.14 157.8 5.14C156.773 5.14 155.96 5.44667 155.36 6.06C154.76 6.67333 154.46 7.56 154.46 8.72V14H152.54ZM166.428 14.12C165.295 14.12 164.295 13.8867 163.428 13.42C162.575 12.9533 161.908 12.3133 161.428 11.5C160.962 10.6867 160.728 9.75333 160.728 8.7C160.728 7.64667 160.955 6.71333 161.408 5.9C161.875 5.08667 162.508 4.45333 163.308 4C164.122 3.53333 165.035 3.3 166.048 3.3C167.075 3.3 167.982 3.52667 168.768 3.98C169.555 4.43333 170.168 5.07333 170.608 5.9C171.062 6.71333 171.288 7.66667 171.288 8.76C171.288 8.84 171.282 8.93333 171.268 9.04C171.268 9.14667 171.262 9.24667 171.248 9.34H162.228V7.96H170.248L169.468 8.44C169.482 7.76 169.342 7.15333 169.048 6.62C168.755 6.08667 168.348 5.67333 167.828 5.38C167.322 5.07333 166.728 4.92 166.048 4.92C165.382 4.92 164.788 5.07333 164.268 5.38C163.748 5.67333 163.342 6.09333 163.048 6.64C162.755 7.17333 162.608 7.78667 162.608 8.48V8.8C162.608 9.50667 162.768 10.14 163.088 10.7C163.422 11.2467 163.882 11.6733 164.468 11.98C165.055 12.2867 165.728 12.44 166.488 12.44C167.115 12.44 167.682 12.3333 168.188 12.12C168.708 11.9067 169.162 11.5867 169.548 11.16L170.608 12.4C170.128 12.96 169.528 13.3867 168.808 13.68C168.102 13.9733 167.308 14.12 166.428 14.12ZM178.194 14.12C177.314 14.12 176.474 14 175.674 13.76C174.888 13.52 174.268 13.2267 173.814 12.88L174.614 11.36C175.068 11.6667 175.628 11.9267 176.294 12.14C176.961 12.3533 177.641 12.46 178.334 12.46C179.228 12.46 179.868 12.3333 180.254 12.08C180.654 11.8267 180.854 11.4733 180.854 11.02C180.854 10.6867 180.734 10.4267 180.494 10.24C180.254 10.0533 179.934 9.91333 179.534 9.82C179.148 9.72667 178.714 9.64667 178.234 9.58C177.754 9.5 177.274 9.40667 176.794 9.3C176.314 9.18 175.874 9.02 175.474 8.82C175.074 8.60667 174.754 8.32 174.514 7.96C174.274 7.58667 174.154 7.09333 174.154 6.48C174.154 5.84 174.334 5.28 174.694 4.8C175.054 4.32 175.561 3.95333 176.214 3.7C176.881 3.43333 177.668 3.3 178.574 3.3C179.268 3.3 179.968 3.38667 180.674 3.56C181.394 3.72 181.981 3.95333 182.434 4.26L181.614 5.78C181.134 5.46 180.634 5.24 180.114 5.12C179.594 5 179.074 4.94 178.554 4.94C177.714 4.94 177.088 5.08 176.674 5.36C176.261 5.62667 176.054 5.97333 176.054 6.4C176.054 6.76 176.174 7.04 176.414 7.24C176.668 7.42667 176.988 7.57333 177.374 7.68C177.774 7.78667 178.214 7.88 178.694 7.96C179.174 8.02667 179.654 8.12 180.134 8.24C180.614 8.34667 181.048 8.5 181.434 8.7C181.834 8.9 182.154 9.18 182.394 9.54C182.648 9.9 182.774 10.38 182.774 10.98C182.774 11.62 182.588 12.1733 182.214 12.64C181.841 13.1067 181.314 13.4733 180.634 13.74C179.954 13.9933 179.141 14.12 178.194 14.12Z" fill="#04B0A8"/>
<path d="M72.024 37L66.528 20.2H70.56L75.336 35.08H73.32L78.312 20.2H81.912L86.712 35.08H84.768L89.664 20.2H93.384L87.888 37H83.712L79.464 23.944H80.568L76.2 37H72.024ZM100.474 37.192C99.0976 37.192 97.8736 36.904 96.8016 36.328C95.7456 35.752 94.9056 34.968 94.2816 33.976C93.6736 32.968 93.3696 31.824 93.3696 30.544C93.3696 29.248 93.6736 28.104 94.2816 27.112C94.9056 26.104 95.7456 25.32 96.8016 24.76C97.8736 24.184 99.0976 23.896 100.474 23.896C101.834 23.896 103.05 24.184 104.122 24.76C105.194 25.32 106.034 26.096 106.642 27.088C107.25 28.08 107.554 29.232 107.554 30.544C107.554 31.824 107.25 32.968 106.642 33.976C106.034 34.968 105.194 35.752 104.122 36.328C103.05 36.904 101.834 37.192 100.474 37.192ZM100.474 34.12C101.098 34.12 101.658 33.976 102.154 33.688C102.65 33.4 103.042 32.992 103.33 32.464C103.618 31.92 103.762 31.28 103.762 30.544C103.762 29.792 103.618 29.152 103.33 28.624C103.042 28.096 102.65 27.688 102.154 27.4C101.658 27.112 101.098 26.968 100.474 26.968C99.8496 26.968 99.2896 27.112 98.7936 27.4C98.2976 27.688 97.8976 28.096 97.5936 28.624C97.3056 29.152 97.1616 29.792 97.1616 30.544C97.1616 31.28 97.3056 31.92 97.5936 32.464C97.8976 32.992 98.2976 33.4 98.7936 33.688C99.2896 33.976 99.8496 34.12 100.474 34.12ZM110.056 37V24.088H113.632V27.736L113.128 26.68C113.512 25.768 114.128 25.08 114.976 24.616C115.824 24.136 116.856 23.896 118.072 23.896V27.352C117.912 27.336 117.768 27.328 117.64 27.328C117.512 27.312 117.376 27.304 117.232 27.304C116.208 27.304 115.376 27.6 114.736 28.192C114.112 28.768 113.8 29.672 113.8 30.904V37H110.056ZM123.418 34.36L123.514 29.8L129.538 24.088H134.002L128.218 29.968L126.274 31.552L123.418 34.36ZM120.322 37V19.192H124.066V37H120.322ZM129.946 37L125.578 31.576L127.93 28.672L134.482 37H129.946ZM142.034 37.192C140.562 37.192 139.266 36.904 138.146 36.328C137.042 35.752 136.186 34.968 135.578 33.976C134.97 32.968 134.666 31.824 134.666 30.544C134.666 29.248 134.962 28.104 135.554 27.112C136.162 26.104 136.986 25.32 138.026 24.76C139.066 24.184 140.242 23.896 141.554 23.896C142.818 23.896 143.954 24.168 144.962 24.712C145.986 25.24 146.794 26.008 147.386 27.016C147.978 28.008 148.274 29.2 148.274 30.592C148.274 30.736 148.266 30.904 148.25 31.096C148.234 31.272 148.218 31.44 148.202 31.6H137.714V29.416H146.234L144.794 30.064C144.794 29.392 144.658 28.808 144.386 28.312C144.114 27.816 143.738 27.432 143.258 27.16C142.778 26.872 142.218 26.728 141.578 26.728C140.938 26.728 140.37 26.872 139.874 27.16C139.394 27.432 139.018 27.824 138.746 28.336C138.474 28.832 138.338 29.424 138.338 30.112V30.688C138.338 31.392 138.49 32.016 138.794 32.56C139.114 33.088 139.554 33.496 140.114 33.784C140.69 34.056 141.362 34.192 142.13 34.192C142.818 34.192 143.418 34.088 143.93 33.88C144.458 33.672 144.938 33.36 145.37 32.944L147.362 35.104C146.77 35.776 146.026 36.296 145.13 36.664C144.234 37.016 143.202 37.192 142.034 37.192ZM150.767 37V24.088H154.343V27.736L153.839 26.68C154.223 25.768 154.839 25.08 155.687 24.616C156.535 24.136 157.567 23.896 158.783 23.896V27.352C158.623 27.336 158.479 27.328 158.351 27.328C158.223 27.312 158.087 27.304 157.943 27.304C156.919 27.304 156.087 27.6 155.447 28.192C154.823 28.768 154.511 29.672 154.511 30.904V37H150.767ZM160.412 31.744V28.744H167.204V31.744H160.412ZM181.934 20.2H185.822V37H181.934V20.2ZM174.302 37H170.414V20.2H174.302V37ZM182.222 30.112H174.014V26.824H182.222V30.112ZM194.981 37.192C193.909 37.192 192.949 36.984 192.101 36.568C191.269 36.152 190.621 35.52 190.157 34.672C189.693 33.808 189.461 32.712 189.461 31.384V24.088H193.205V30.832C193.205 31.904 193.429 32.696 193.877 33.208C194.341 33.704 194.989 33.952 195.821 33.952C196.397 33.952 196.909 33.832 197.357 33.592C197.805 33.336 198.157 32.952 198.413 32.44C198.669 31.912 198.797 31.256 198.797 30.472V24.088H202.541V37H198.989V33.448L199.637 34.48C199.205 35.376 198.565 36.056 197.717 36.52C196.885 36.968 195.973 37.192 194.981 37.192ZM213.641 37.192C212.505 37.192 211.529 36.952 210.713 36.472C209.897 35.992 209.273 35.264 208.841 34.288C208.409 33.296 208.193 32.048 208.193 30.544C208.193 29.024 208.417 27.776 208.865 26.8C209.329 25.824 209.969 25.096 210.785 24.616C211.601 24.136 212.553 23.896 213.641 23.896C214.857 23.896 215.945 24.168 216.905 24.712C217.881 25.256 218.649 26.024 219.209 27.016C219.785 28.008 220.073 29.184 220.073 30.544C220.073 31.888 219.785 33.056 219.209 34.048C218.649 35.04 217.881 35.816 216.905 36.376C215.945 36.92 214.857 37.192 213.641 37.192ZM206.009 37V19.192H209.753V26.704L209.513 30.52L209.585 34.36V37H206.009ZM212.993 34.12C213.617 34.12 214.169 33.976 214.649 33.688C215.145 33.4 215.537 32.992 215.825 32.464C216.129 31.92 216.281 31.28 216.281 30.544C216.281 29.792 216.129 29.152 215.825 28.624C215.537 28.096 215.145 27.688 214.649 27.4C214.169 27.112 213.617 26.968 212.993 26.968C212.369 26.968 211.809 27.112 211.313 27.4C210.817 27.688 210.425 28.096 210.137 28.624C209.849 29.152 209.705 29.792 209.705 30.544C209.705 31.28 209.849 31.92 210.137 32.464C210.425 32.992 210.817 33.4 211.313 33.688C211.809 33.976 212.369 34.12 212.993 34.12Z" fill="#04B0A8"/>
</g>
<defs>
<clipPath id="clip0_1_6">
<rect width="239" height="40" fill="white"/>
</clipPath>
</defs>
</svg>
