<svg width="774" height="120" viewBox="0 0 774 120" fill="none" xmlns="http://www.w3.org/2000/svg">
<g filter="url(#filter0_dd_107_3)">
<path d="M64.192 69.196H73.372L73.156 89.5H16.888V81.724L26.932 78.808L24.88 81.94V21.46L26.824 24.484L16.888 21.784V14.008L40 13.468H71.968V32.908H62.788L60.628 22.432L63.544 24.592H37.948L40.324 22.216V47.812L37.948 45.436H63.544V56.128H37.948L40.324 53.428V80.752L37.948 78.376H64.84L61.924 80.752L64.192 69.196ZM99.8725 32.584C99.8725 34.672 100.593 36.4 102.033 37.768C103.473 39.136 105.345 40.324 107.649 41.332C109.953 42.268 112.509 43.204 115.317 44.14C118.125 45.004 120.897 46.012 123.633 47.164C126.369 48.244 128.889 49.648 131.193 51.376C133.569 53.032 135.441 55.156 136.809 57.748C138.249 60.34 138.969 63.58 138.969 67.468C138.969 72.796 137.565 77.188 134.757 80.644C132.021 84.1 128.349 86.692 123.741 88.42C119.133 90.076 114.021 90.904 108.405 90.904C104.589 90.904 100.665 90.508 96.6325 89.716C92.6725 88.996 88.7485 87.88 84.8605 86.368L85.4005 65.848H94.3645L96.6325 78.916L95.2285 76.324C97.3885 77.332 99.6565 78.124 102.033 78.7C104.481 79.204 106.857 79.456 109.161 79.456C111.825 79.456 114.273 79.096 116.505 78.376C118.737 77.656 120.501 76.54 121.797 75.028C123.093 73.516 123.741 71.644 123.741 69.412C123.741 67.18 123.057 65.344 121.689 63.904C120.321 62.464 118.449 61.276 116.073 60.34C113.769 59.332 111.249 58.432 108.513 57.64C105.777 56.776 103.005 55.804 100.197 54.724C97.4605 53.644 94.9045 52.276 92.5285 50.62C90.2245 48.964 88.3885 46.876 87.0205 44.356C85.6525 41.764 84.9685 38.524 84.9685 34.636C84.9685 29.524 86.1925 25.348 88.6405 22.108C91.0885 18.796 94.4005 16.312 98.5765 14.656C102.753 13 107.469 12.172 112.725 12.172C116.469 12.172 120.357 12.568 124.389 13.36C128.421 14.152 132.453 15.34 136.485 16.924L135.297 35.824H126.117L123.849 24.052L125.577 25.78C123.777 25.06 121.833 24.52 119.745 24.16C117.729 23.728 115.677 23.512 113.589 23.512C111.141 23.512 108.873 23.836 106.785 24.484C104.697 25.06 103.005 26.032 101.709 27.4C100.485 28.696 99.8725 30.424 99.8725 32.584ZM175.134 62.608H166.602L169.734 60.232V81.94L167.574 78.916L179.994 81.724V89.5H146.298V81.724L156.666 78.7L154.29 81.94V21.244L156.99 24.592L146.298 21.784V14.008L170.058 13.468H179.886C185.862 13.468 190.758 14.512 194.574 16.6C198.39 18.616 201.198 21.388 202.998 24.916C204.87 28.444 205.806 32.44 205.806 36.904C205.806 41.728 204.69 46.12 202.458 50.08C200.298 53.968 196.95 57.028 192.414 59.26C187.95 61.492 182.19 62.608 175.134 62.608ZM177.402 24.484H167.358L169.734 22.108V53.86L166.602 51.484H175.242C180.066 51.484 183.738 50.188 186.258 47.596C188.778 45.004 190.038 41.548 190.038 37.228C190.038 33.268 188.958 30.172 186.798 27.94C184.71 25.636 181.578 24.484 177.402 24.484ZM235.457 94.036V14.548C236.393 13.612 237.761 13.144 239.561 13.144C241.073 13.144 242.081 13.252 242.585 13.468C243.089 13.684 243.485 13.828 243.773 13.9V93.928C243.125 94.576 242.261 94.9 241.181 94.9H239.237C238.301 94.9 237.617 94.828 237.185 94.684C236.753 94.54 236.465 94.432 236.321 94.36C236.177 94.36 236.069 94.324 235.997 94.252C235.781 94.252 235.601 94.18 235.457 94.036ZM291.607 93.388C284.983 93.388 279.727 92.488 275.839 90.688C272.023 88.96 270.115 86.62 270.115 83.668C270.115 78.484 274.219 73.516 282.427 68.764C290.059 64.372 297.331 62.176 304.243 62.176C307.123 62.176 308.563 62.932 308.563 64.444C308.563 68.548 303.991 72.652 294.847 76.756C293.695 77.26 292.687 77.692 291.823 78.052C290.959 78.34 290.275 78.484 289.771 78.484C289.123 78.484 288.799 78.376 288.799 78.16C288.799 77.8 289.123 77.404 289.771 76.972C290.491 76.54 291.103 76.216 291.607 76C296.647 73.768 300.247 71.14 302.407 68.116C302.911 67.468 303.163 66.892 303.163 66.388C303.163 65.956 302.875 65.74 302.299 65.74C296.683 65.74 290.635 67.432 284.155 70.816C277.099 74.488 273.571 78.412 273.571 82.588C273.571 86.476 279.115 88.42 290.203 88.42C298.699 88.42 308.167 87.232 318.607 84.856C319.687 84.64 321.199 84.244 323.143 83.668C325.087 83.092 327.175 82.408 329.407 81.616C331.711 80.752 333.871 79.78 335.887 78.7C337.975 77.62 339.667 76.468 340.963 75.244C342.259 73.948 342.907 72.616 342.907 71.248C342.907 69.52 341.827 67.936 339.667 66.496C337.507 65.056 334.735 63.76 331.351 62.608C328.039 61.456 324.511 60.412 320.767 59.476C317.023 58.468 313.567 57.604 310.399 56.884C308.743 56.452 306.799 55.804 304.567 54.94C302.335 54.004 300.391 52.888 298.735 51.592C297.079 50.224 296.251 48.712 296.251 47.056C296.251 44.536 297.727 42.124 300.679 39.82C303.703 37.444 307.951 35.356 313.423 33.556C318.031 32.116 322.459 31.072 326.707 30.424C331.027 29.704 335.023 29.344 338.695 29.344C343.375 29.344 346.723 29.92 348.739 31.072C350.827 32.152 351.871 33.628 351.871 35.5C351.871 36.436 351.511 37.66 350.791 39.172C350.071 40.684 349.171 42.052 348.091 43.276C347.011 44.428 345.931 45.004 344.851 45.004C343.987 45.004 343.555 44.752 343.555 44.248C343.555 43.888 343.951 43.384 344.743 42.736C345.535 42.088 346.327 41.332 347.119 40.468C347.911 39.604 348.307 38.704 348.307 37.768C348.307 36.328 347.479 35.356 345.823 34.852C344.239 34.348 341.863 34.096 338.695 34.096C337.111 34.096 335.239 34.204 333.079 34.42C330.991 34.564 328.795 34.852 326.491 35.284C324.403 35.644 321.883 36.148 318.931 36.796C316.051 37.444 313.351 38.308 310.831 39.388C305.215 41.764 302.407 43.96 302.407 45.976C302.407 48.352 306.151 50.404 313.639 52.132C320.983 53.788 326.599 55.084 330.487 56.02C334.447 56.956 336.715 57.496 337.291 57.64C341.539 59.008 344.455 60.664 346.039 62.608C347.695 64.48 348.523 66.496 348.523 68.656C348.523 70.096 348.019 71.68 347.011 73.408C346.075 75.064 344.599 76.612 342.583 78.052C339.631 80.284 336.391 82.372 332.863 84.316C329.335 86.188 324.943 87.844 319.687 89.284C314.719 90.652 309.895 91.66 305.215 92.308C300.607 93.028 296.071 93.388 291.607 93.388ZM364.084 90.256C360.916 90.256 358.144 89.5 355.768 87.988C353.392 86.476 352.204 83.956 352.204 80.428C352.204 78.268 352.78 76.036 353.932 73.732C355.156 71.356 356.74 69.16 358.684 67.144C360.628 65.128 362.716 63.508 364.948 62.284C367.252 60.988 369.52 60.34 371.752 60.34C372.904 60.34 373.876 60.664 374.668 61.312C375.46 61.888 375.856 62.788 375.856 64.012C375.856 65.452 375.208 66.928 373.912 68.44C372.688 69.952 371.14 71.392 369.268 72.76C367.468 74.056 365.632 75.208 363.76 76.216C361.888 77.152 360.34 77.836 359.116 78.268C358.9 79.132 358.792 80.032 358.792 80.968C358.792 82.624 359.224 84.1 360.088 85.396C361.024 86.692 362.608 87.34 364.84 87.34C367.072 87.34 369.088 86.908 370.888 86.044C372.76 85.108 374.452 83.992 375.964 82.696C377.476 81.328 378.844 80.032 380.068 78.808C381.076 77.8 381.904 76.972 382.552 76.324C383.2 75.604 383.776 74.992 384.28 74.488C384.496 74.272 384.82 74.164 385.252 74.164C385.612 74.164 385.9 74.308 386.116 74.596C386.332 74.812 386.26 75.1 385.9 75.46C385.612 75.82 385.108 76.36 384.388 77.08C383.74 77.728 383.092 78.412 382.444 79.132C381.868 79.78 381.436 80.248 381.148 80.536C377.98 83.92 374.956 86.404 372.076 87.988C369.196 89.5 366.532 90.256 364.084 90.256ZM359.44 76.108C360.16 75.964 361.168 75.532 362.464 74.812C363.832 74.02 365.164 73.12 366.46 72.112C367.036 71.608 367.828 70.852 368.836 69.844C369.844 68.836 370.528 67.972 370.888 67.252C371.392 66.316 371.644 65.56 371.644 64.984C371.644 64.12 371.176 63.688 370.24 63.688C369.736 63.688 369.196 63.796 368.62 64.012C367.9 64.3 367.036 65.02 366.028 66.172C365.02 67.324 364.228 68.224 363.652 68.872C362.788 69.952 361.96 71.14 361.168 72.436C360.448 73.66 359.872 74.884 359.44 76.108ZM407.032 89.824C404.728 89.824 403 89.284 401.848 88.204C400.696 87.052 399.94 85.612 399.58 83.884C399.292 82.156 399.184 80.428 399.256 78.7C398.176 80.14 396.844 81.724 395.26 83.452C393.676 85.108 391.948 86.548 390.076 87.772C388.204 88.996 386.296 89.608 384.352 89.608C382.912 89.608 381.724 89.284 380.788 88.636C379.852 87.916 379.384 86.8 379.384 85.288C379.384 82.768 380.176 80.104 381.76 77.296C383.416 74.488 385.504 71.824 388.024 69.304C390.544 66.712 393.244 64.624 396.124 63.04C399.004 61.456 401.704 60.664 404.224 60.664C404.944 60.664 405.952 60.808 407.248 61.096C408.544 61.384 409.696 61.816 410.704 62.392C411.784 62.968 412.324 63.76 412.324 64.768C412.324 65.272 412 65.56 411.352 65.632C410.704 65.704 410.236 65.92 409.948 66.28C407.86 68.8 406.816 72.868 406.816 78.484C406.816 79.204 406.852 80.176 406.924 81.4C406.996 82.624 407.248 83.704 407.68 84.64C408.184 85.576 408.94 86.044 409.948 86.044C411.46 86.044 413.08 85.396 414.808 84.1C416.536 82.804 418.264 81.256 419.992 79.456C421.72 77.584 423.304 75.892 424.744 74.38C424.888 74.164 425.032 74.056 425.176 74.056C425.536 74.056 425.824 74.272 426.04 74.704C426.328 75.064 426.328 75.388 426.04 75.676C424.312 77.692 422.62 79.492 420.964 81.076C419.38 82.66 417.724 84.172 415.996 85.612C412.684 88.42 409.696 89.824 407.032 89.824ZM390.184 84.64C391.84 83.704 393.496 82.228 395.152 80.212C396.88 78.196 398.5 75.892 400.012 73.3C401.596 70.708 402.928 68.116 404.008 65.524C402.28 65.524 400.336 66.172 398.176 67.468C396.016 68.692 393.964 70.276 392.02 72.22C390.076 74.092 388.456 76.072 387.16 78.16C385.936 80.176 385.324 82.012 385.324 83.668C385.324 85.036 385.864 85.72 386.944 85.72C387.736 85.72 388.816 85.36 390.184 84.64ZM444.076 91.336C441.556 91.336 439.432 90.76 437.704 89.608C435.976 88.456 435.112 86.512 435.112 83.776C435.112 82.048 435.796 79.744 437.164 76.864C438.532 73.984 440.224 71.32 442.24 68.872C441.88 68.944 441.412 69.016 440.836 69.088C440.332 69.088 439.756 69.088 439.108 69.088C438.028 69.088 436.948 68.944 435.868 68.656C434.788 68.296 434.068 67.648 433.708 66.712C433.42 67.072 432.7 67.972 431.548 69.412C430.396 70.852 429.064 72.436 427.552 74.164C426.112 75.82 424.78 77.26 423.556 78.484C422.332 79.708 421.504 80.32 421.072 80.32C420.928 80.32 420.748 80.248 420.532 80.104C420.316 79.96 420.208 79.78 420.208 79.564C420.208 79.204 420.568 78.664 421.288 77.944C422.08 77.224 422.656 76.684 423.016 76.324C425.752 73.372 427.768 70.96 429.064 69.088C430.432 67.144 431.368 65.704 431.872 64.768C431.44 64.12 431.224 63.112 431.224 61.744C431.224 60.232 431.44 58.648 431.872 56.992C432.376 55.264 433.024 53.788 433.816 52.564C434.68 51.34 435.652 50.728 436.732 50.728C437.956 50.728 438.964 51.376 439.756 52.672C440.548 53.968 440.944 55.156 440.944 56.236C440.944 57.1 440.62 58.036 439.972 59.044C439.324 60.052 438.568 61.024 437.704 61.96C436.912 62.896 436.228 63.652 435.652 64.228C436.3 65.956 437.56 66.82 439.432 66.82C440.728 66.82 441.808 66.46 442.672 65.74C443.536 65.02 444.328 64.336 445.048 63.688C445.768 62.968 446.524 62.608 447.316 62.608C448.324 62.608 449.224 62.968 450.016 63.688C450.808 64.336 451.168 65.164 451.096 66.172C449.872 67.468 448.504 69.232 446.992 71.464C445.552 73.624 444.328 75.892 443.32 78.268C442.312 80.572 441.808 82.66 441.808 84.532C441.808 85.9 442.204 86.836 442.996 87.34C443.86 87.844 444.976 88.096 446.344 88.096C447.64 88.096 449.008 87.736 450.448 87.016C451.888 86.296 453.328 85.432 454.768 84.424C455.704 83.776 457.072 82.588 458.872 80.86C460.744 79.132 462.904 76.936 465.352 74.272C465.496 74.128 465.64 74.056 465.784 74.056C466.36 74.056 466.648 74.452 466.648 75.244C466.648 75.46 466.216 76.072 465.352 77.08C464.488 78.016 463.444 79.096 462.22 80.32C461.068 81.544 459.952 82.696 458.872 83.776C457.792 84.784 457 85.468 456.496 85.828C454.696 87.196 452.752 88.456 450.664 89.608C448.648 90.76 446.452 91.336 444.076 91.336ZM473.128 90.04C470.032 90.04 467.476 89.356 465.46 87.988C463.516 86.548 462.544 84.172 462.544 80.86C462.544 78.7 463.264 76.54 464.704 74.38C466.216 72.148 468.088 70.132 470.32 68.332C472.624 66.46 475 64.984 477.448 63.904C479.968 62.752 482.236 62.176 484.252 62.176C485.404 62.176 486.52 62.392 487.6 62.824C488.68 63.184 489.22 64.084 489.22 65.524C489.22 66.172 488.932 67 488.356 68.008C487.852 68.944 487.204 69.808 486.412 70.6C485.62 71.392 484.828 71.788 484.036 71.788C483.244 71.788 482.848 71.32 482.848 70.384C482.848 69.808 482.992 69.268 483.28 68.764C483.568 68.26 483.712 67.756 483.712 67.252C483.712 66.316 483.388 65.776 482.74 65.632C482.092 65.416 481.48 65.308 480.904 65.308C478.888 65.308 476.944 66.136 475.072 67.792C473.2 69.376 471.652 71.284 470.428 73.516C469.276 75.748 468.7 77.872 468.7 79.888C468.7 84.568 470.68 86.908 474.64 86.908C477.88 86.908 480.796 86.296 483.388 85.072C485.98 83.848 488.212 82.444 490.084 80.86C492.028 79.204 493.54 77.764 494.62 76.54C495.772 75.316 496.456 74.704 496.672 74.704C497.32 74.704 497.644 74.92 497.644 75.352C497.644 75.64 497.536 75.964 497.32 76.324C497.248 76.468 496.996 76.792 496.564 77.296C496.204 77.728 495.844 78.124 495.484 78.484C491.956 81.796 488.356 84.568 484.684 86.8C481.084 88.96 477.232 90.04 473.128 90.04ZM518.49 90.256C516.042 90.256 514.098 89.608 512.658 88.312C511.29 87.016 510.606 85.108 510.606 82.588C510.606 81.004 510.966 79.096 511.686 76.864C512.406 74.632 513.126 72.832 513.846 71.464C509.886 74.2 506.718 77.08 504.342 80.104C502.038 83.128 499.95 85.9 498.078 88.42C497.646 88.996 496.962 89.392 496.026 89.608C495.162 89.824 494.37 89.932 493.65 89.932C493.074 89.932 492.21 89.788 491.058 89.5C489.906 89.284 489.33 88.744 489.33 87.88C489.33 87.016 489.726 85.72 490.518 83.992C491.31 82.192 492.174 80.428 493.11 78.7C494.046 76.972 494.73 75.64 495.162 74.704C496.386 72.472 497.97 69.736 499.914 66.496C501.93 63.184 504.198 59.656 506.718 55.912C509.31 52.096 512.046 48.352 514.926 44.68C517.806 40.936 520.758 37.552 523.782 34.528C526.878 31.432 529.938 28.984 532.962 27.184C535.986 25.312 538.83 24.376 541.494 24.376C543.51 24.376 545.094 24.844 546.246 25.78C547.398 26.716 547.974 28.228 547.974 30.316C547.974 32.476 547.146 34.816 545.49 37.336C543.834 39.856 541.674 42.448 539.01 45.112C536.346 47.704 533.502 50.224 530.478 52.672C527.454 55.048 524.538 57.244 521.73 59.26C518.994 61.276 516.726 62.932 514.926 64.228C512.982 65.596 510.966 66.964 508.878 68.332C506.862 69.628 505.026 71.104 503.37 72.76C503.154 72.976 502.758 73.552 502.182 74.488C501.606 75.424 500.994 76.468 500.346 77.62C499.77 78.772 499.23 79.852 498.726 80.86C498.222 81.796 497.898 82.444 497.754 82.804C498.402 82.156 499.446 81.184 500.886 79.888C502.326 78.52 503.946 77.044 505.746 75.46C507.546 73.876 509.346 72.364 511.146 70.924C513.018 69.412 514.674 68.188 516.114 67.252C517.626 66.316 518.742 65.848 519.462 65.848C520.47 65.848 521.298 66.1 521.946 66.604C522.594 67.108 522.918 67.864 522.918 68.872C522.198 70.168 521.334 71.644 520.326 73.3C519.318 74.956 518.418 76.648 517.626 78.376C516.834 80.104 516.438 81.724 516.438 83.236C516.438 84.388 516.762 85.288 517.41 85.936C518.13 86.584 518.994 86.908 520.002 86.908C521.874 86.908 523.782 86.368 525.726 85.288C527.67 84.208 529.47 82.948 531.126 81.508C532.854 79.996 534.33 78.556 535.554 77.188C536.85 75.82 537.786 74.848 538.362 74.272C538.506 74.128 538.686 74.056 538.902 74.056C539.478 74.056 539.766 74.416 539.766 75.136C539.766 75.424 539.442 75.928 538.794 76.648C538.146 77.368 537.678 77.872 537.39 78.16C535.59 80.104 533.718 82.012 531.774 83.884C529.902 85.756 527.886 87.304 525.726 88.528C523.566 89.68 521.154 90.256 518.49 90.256ZM504.774 68.656C506.502 67.504 508.878 65.884 511.902 63.796C514.926 61.636 518.166 59.188 521.622 56.452C525.15 53.716 528.462 50.836 531.558 47.812C534.726 44.788 537.318 41.836 539.334 38.956C541.35 36.004 542.358 33.304 542.358 30.856C542.358 29.416 542.07 28.444 541.494 27.94C540.918 27.436 540.342 27.184 539.766 27.184C538.11 27.184 536.202 27.976 534.042 29.56C531.954 31.144 529.722 33.268 527.346 35.932C524.97 38.524 522.63 41.404 520.326 44.572C518.022 47.668 515.826 50.8 513.738 53.968C511.65 57.064 509.814 59.908 508.23 62.5C506.718 65.092 505.566 67.144 504.774 68.656ZM574.262 99.436C571.886 99.436 569.33 99.184 566.594 98.68C563.858 98.176 561.23 97.312 558.71 96.088C556.262 94.936 554.246 93.352 552.662 91.336C551.078 89.392 550.286 86.944 550.286 83.992C550.286 80.536 551.438 77.548 553.742 75.028C556.118 72.508 559.25 70.384 563.138 68.656C567.098 66.856 571.526 65.38 576.422 64.228C581.318 63.076 586.322 62.176 591.434 61.528C596.618 60.88 601.622 60.448 606.446 60.232C611.27 59.944 615.518 59.8 619.19 59.8C620.702 59.8 622.106 59.836 623.402 59.908C624.698 59.908 625.814 59.944 626.75 60.016C627.686 58.144 628.658 56.056 629.666 53.752C630.674 51.448 631.538 49.108 632.258 46.732C633.05 44.284 633.446 42.052 633.446 40.036C633.446 39.1 633.122 38.164 632.474 37.228C631.898 36.22 631.106 35.716 630.098 35.716C628.73 35.716 627.578 35.932 626.642 36.364C625.706 36.796 624.662 37.3 623.51 37.876C623.078 38.02 622.826 38.092 622.754 38.092C622.178 38.092 621.89 37.804 621.89 37.228C621.89 36.58 622.358 36.004 623.294 35.5C624.302 34.924 625.49 34.42 626.858 33.988C628.226 33.484 629.522 33.124 630.746 32.908C632.042 32.62 632.942 32.476 633.446 32.476C635.966 32.476 637.73 33.196 638.738 34.636C639.818 36.004 640.358 37.84 640.358 40.144C640.358 43.456 639.71 46.948 638.414 50.62C637.118 54.292 635.75 57.604 634.31 60.556C637.118 60.844 639.926 61.204 642.734 61.636C645.542 61.996 648.314 62.536 651.05 63.256C652.13 61.168 653.498 58.648 655.154 55.696C656.882 52.744 658.718 49.72 660.662 46.624C662.606 43.456 664.55 40.54 666.494 37.876C668.51 35.212 670.382 33.196 672.11 31.828C673.118 31.036 674.234 30.532 675.458 30.316C676.682 30.1 677.87 29.992 679.022 29.992C679.454 29.992 679.958 30.064 680.534 30.208C681.11 30.28 681.434 30.604 681.506 31.18C681.362 31.828 680.858 32.584 679.994 33.448C679.13 34.312 678.446 35.032 677.942 35.608C673.334 40.648 669.266 45.58 665.738 50.404C662.21 55.156 659.042 60.052 656.234 65.092C657.242 65.452 658.322 65.956 659.474 66.604C660.626 67.252 661.634 68.044 662.498 68.98C663.362 69.844 663.794 70.888 663.794 72.112C663.794 73.696 663.398 74.992 662.606 76C662.03 76.72 661.346 77.08 660.554 77.08C660.122 77.08 659.906 76.936 659.906 76.648C659.906 76.36 660.05 76.072 660.338 75.784C660.842 75.136 661.094 74.128 661.094 72.76C661.094 72.544 661.094 72.328 661.094 72.112C661.094 71.896 661.058 71.68 660.986 71.464C660.914 70.816 660.518 70.204 659.798 69.628C659.078 69.052 658.286 68.548 657.422 68.116C656.558 67.612 655.874 67.288 655.37 67.144C654.506 68.8 653.426 70.924 652.13 73.516C650.906 76.036 649.826 78.628 648.89 81.292C647.954 83.884 647.486 86.152 647.486 88.096C647.486 88.816 647.666 89.644 648.026 90.58C648.458 91.516 649.142 91.984 650.078 91.984C651.086 91.984 652.058 91.804 652.994 91.444C653.93 91.084 655.082 90.436 656.45 89.5C656.738 89.356 656.918 89.284 656.99 89.284C657.206 89.284 657.314 89.464 657.314 89.824C657.314 90.544 656.846 91.264 655.91 91.984C655.046 92.776 653.966 93.388 652.67 93.82C651.446 94.252 650.258 94.432 649.106 94.36C646.802 94.216 645.074 93.604 643.922 92.524C642.842 91.444 642.302 89.788 642.302 87.556C642.302 85.468 642.77 83.092 643.706 80.428C644.642 77.692 645.722 74.992 646.946 72.328C648.242 69.664 649.322 67.396 650.186 65.524C647.378 64.876 644.534 64.372 641.654 64.012C638.846 63.58 636.002 63.256 633.122 63.04C630.242 67.36 626.75 71.68 622.646 76C618.614 80.248 614.078 84.172 609.038 87.772C603.998 91.3 598.562 94.108 592.73 96.196C586.898 98.356 580.742 99.436 574.262 99.436ZM573.614 97.168C580.31 97.168 586.286 96.124 591.542 94.036C596.87 92.02 601.586 89.32 605.69 85.936C609.794 82.552 613.43 78.844 616.598 74.812C619.838 70.708 622.754 66.64 625.346 62.608C624.41 62.536 623.438 62.5 622.43 62.5C621.494 62.428 620.558 62.392 619.622 62.392C617.462 62.392 614.402 62.536 610.442 62.824C606.482 63.112 602.09 63.58 597.266 64.228C592.442 64.876 587.582 65.776 582.686 66.928C577.862 68.08 573.398 69.52 569.294 71.248C565.19 72.976 561.878 75.028 559.358 77.404C556.838 79.78 555.578 82.588 555.578 85.828C555.578 88.06 556.19 89.896 557.414 91.336C558.71 92.776 560.294 93.928 562.166 94.792C564.038 95.656 566.018 96.268 568.106 96.628C570.194 96.988 572.03 97.168 573.614 97.168ZM693.445 91.12C691.213 91.12 689.485 90.4 688.261 88.96C687.037 87.52 686.425 85.684 686.425 83.452C686.425 82.444 686.569 81.364 686.857 80.212C687.145 78.988 687.613 77.764 688.261 76.54C687.541 77.332 686.641 78.376 685.561 79.672C684.481 80.968 683.293 82.264 681.997 83.56C680.773 84.856 679.477 85.936 678.109 86.8C676.813 87.664 675.589 88.096 674.437 88.096C672.421 88.096 671.053 87.412 670.333 86.044C669.685 84.676 669.361 83.128 669.361 81.4C669.361 80.248 669.613 78.844 670.117 77.188C670.693 75.532 671.449 73.912 672.385 72.328C673.321 70.744 674.401 69.448 675.625 68.44C676.849 67.36 678.145 66.82 679.513 66.82C680.017 66.82 680.593 66.928 681.241 67.144C681.961 67.36 682.321 67.756 682.321 68.332C682.321 68.62 681.961 69.268 681.241 70.276C680.593 71.212 679.801 72.292 678.865 73.516C678.001 74.74 677.209 76 676.489 77.296C675.841 78.52 675.517 79.636 675.517 80.644C675.517 81.292 675.589 81.94 675.733 82.588C675.949 83.164 676.453 83.452 677.245 83.452C678.685 83.452 680.125 82.768 681.565 81.4C683.077 79.96 684.589 78.196 686.101 76.108C687.613 74.02 689.053 71.968 690.421 69.952C691.861 67.864 693.157 66.136 694.309 64.768C695.533 63.328 696.577 62.608 697.441 62.608C698.449 62.608 699.349 62.968 700.141 63.688C701.005 64.336 701.437 65.164 701.437 66.172C700.501 67.612 699.277 69.484 697.765 71.788C696.253 74.02 694.885 76.288 693.661 78.592C692.509 80.896 691.933 82.876 691.933 84.532C691.933 86.044 692.257 87.088 692.905 87.664C693.625 88.24 694.453 88.528 695.389 88.528C696.325 88.528 697.405 88.276 698.629 87.772C699.853 87.268 700.933 86.764 701.869 86.26C704.533 84.676 707.017 82.696 709.321 80.32C711.625 77.944 713.605 75.928 715.261 74.272C715.477 74.056 715.693 73.948 715.909 73.948C716.269 73.948 716.449 74.236 716.449 74.812C716.449 75.316 716.233 75.856 715.801 76.432C714.361 78.088 712.417 80.032 709.969 82.264C707.593 84.424 705.145 86.332 702.625 87.988C701.257 88.852 699.781 89.572 698.197 90.148C696.613 90.796 695.029 91.12 693.445 91.12ZM715.529 94.144C715.025 94.144 714.269 94.108 713.261 94.036C712.325 93.964 711.461 93.748 710.669 93.388C709.877 93.1 709.481 92.596 709.481 91.876C709.481 91.444 709.625 91.12 709.913 90.904C710.273 90.688 710.633 90.58 710.993 90.58C711.785 90.58 712.685 90.76 713.693 91.12C714.701 91.552 715.565 91.768 716.285 91.768C719.237 91.768 721.973 90.976 724.493 89.392C727.013 87.736 729.209 85.612 731.081 83.02C732.953 80.428 734.429 77.656 735.509 74.704C736.661 71.752 737.345 68.944 737.561 66.28C737.633 65.92 737.669 65.632 737.669 65.416C737.669 65.128 737.669 64.876 737.669 64.66C737.669 62.788 737.021 61.852 735.725 61.852C735.005 61.852 734.177 62.104 733.241 62.608C732.305 63.112 731.333 63.76 730.325 64.552C728.165 66.28 726.077 68.476 724.061 71.14C722.117 73.804 720.497 76.504 719.201 79.24C717.905 81.904 717.257 84.136 717.257 85.936C717.257 86.728 717.581 87.232 718.229 87.448C718.877 87.664 719.201 88.132 719.201 88.852C719.201 89.212 719.057 89.464 718.769 89.608C718.481 89.824 718.157 89.932 717.797 89.932C715.781 89.932 714.305 89.32 713.369 88.096C712.505 86.872 712.073 85.324 712.073 83.452C712.073 80.86 712.685 78.052 713.909 75.028C715.133 71.932 716.609 68.908 718.337 65.956C720.065 63.004 721.613 60.484 722.981 58.396C724.205 56.596 725.789 54.328 727.733 51.592C729.677 48.784 731.801 45.868 734.105 42.844C736.481 39.82 738.857 36.976 741.233 34.312C743.609 31.648 745.805 29.488 747.821 27.832C749.909 26.176 751.637 25.348 753.005 25.348C753.581 25.348 754.337 25.492 755.273 25.78C756.281 25.996 756.821 26.5 756.893 27.292C756.605 28.156 755.885 29.056 754.733 29.992C753.581 30.856 752.645 31.612 751.925 32.26C748.541 35.356 745.013 38.956 741.341 43.06C737.669 47.164 734.177 51.448 730.865 55.912C727.625 60.304 724.961 64.552 722.873 68.656C724.169 67.216 725.717 65.668 727.517 64.012C729.317 62.284 731.261 60.808 733.349 59.584C735.437 58.36 737.489 57.748 739.505 57.748C741.161 57.748 742.349 58.252 743.069 59.26C743.861 60.196 744.257 61.456 744.257 63.04C744.257 66.424 743.429 69.952 741.773 73.624C740.117 77.224 737.921 80.572 735.185 83.668C732.449 86.764 729.353 89.284 725.897 91.228C722.513 93.172 719.057 94.144 715.529 94.144Z" fill="black"/>
</g>
<defs>
<filter id="filter0_dd_107_3" x="0.674667" y="0.0119972" width="772.432" height="119.691" filterUnits="userSpaceOnUse" color-interpolation-filters="sRGB">
<feFlood flood-opacity="0" result="BackgroundImageFix"/>
<feColorMatrix in="SourceAlpha" type="matrix" values="0 0 0 0 0 0 0 0 0 0 0 0 0 0 0 0 0 0 127 0" result="hardAlpha"/>
<feMorphology radius="4.05333" operator="dilate" in="SourceAlpha" result="effect1_dropShadow_107_3"/>
<feOffset dy="4.05333"/>
<feGaussianBlur stdDeviation="6.08"/>
<feColorMatrix type="matrix" values="0 0 0 0 0 0 0 0 0 0 0 0 0 0 0 0 0 0 0.15 0"/>
<feBlend mode="normal" in2="BackgroundImageFix" result="effect1_dropShadow_107_3"/>
<feColorMatrix in="SourceAlpha" type="matrix" values="0 0 0 0 0 0 0 0 0 0 0 0 0 0 0 0 0 0 127 0" result="hardAlpha"/>
<feOffset dy="2.02667"/>
<feGaussianBlur stdDeviation="2.02667"/>
<feColorMatrix type="matrix" values="0 0 0 0 0 0 0 0 0 0 0 0 0 0 0 0 0 0 0.3 0"/>
<feBlend mode="normal" in2="effect1_dropShadow_107_3" result="effect2_dropShadow_107_3"/>
<feBlend mode="normal" in="SourceGraphic" in2="effect2_dropShadow_107_3" result="shape"/>
</filter>
</defs>
</svg>
